<?xml version="1.0" standalone="no"?>
<!DOCTYPE svg PUBLIC "-//W3C//DTD SVG 1.1//EN" "http://www.w3.org/Graphics/SVG/1.1/DTD/svg11.dtd" >
<svg xmlns="http://www.w3.org/2000/svg">
<metadata></metadata>
<defs>
<font id="pf_agora_serif_promedium" horiz-adv-x="1189" >
<font-face units-per-em="2048" ascent="1536" descent="-512" />
<missing-glyph horiz-adv-x="616" />
<glyph unicode="&#xfb01;" horiz-adv-x="1267" d="M43 84l160 59l2 742h-154v73l154 56v30q0 80 25.5 162t81 146.5t143.5 105.5t213 41q88 0 150.5 -15.5t101 -40t56 -54t17.5 -58.5q0 -47 -31.5 -90t-70.5 -57l-354 180q-35 -10 -56.5 -31.5t-35 -51.5t-18.5 -62.5t-5 -63.5v-156h252q102 0 191 11.5t169 19.5l19 -10 v-887l157 -47l-2 -86h-530l-4 86l162 57v744l-414 -2v-750l164 -49l-2 -86h-539z" />
<glyph unicode="&#xfb02;" horiz-adv-x="1267" d="M43 84l160 59l2 742h-154v73l154 56v20q0 80 25.5 162t81 146.5t143.5 105.5t213 41q70 0 122 -10.5t91 -26.5l153 25l17 -11l4 -1331l157 -47l-2 -88h-532l-2 86l160 57v1078l-299 133q-35 -10 -56.5 -32t-35 -51.5t-18.5 -62t-5 -63.5v-146h291v-112l-291 -2v-750 l164 -49l-2 -86h-539z" />
<glyph unicode="&#xfb03;" horiz-adv-x="1898" d="M43 84l160 59l2 742h-154v73l154 56v22q0 80 25.5 161t81 145.5t143.5 105.5t213 41q111 0 185.5 -28.5t109.5 -69.5q55 55 137 91t198 36q88 0 150.5 -15.5t101.5 -39t56.5 -53.5t17.5 -60q0 -45 -32.5 -88t-71.5 -60l-353 182q-35 -10 -57.5 -32.5t-34.5 -51t-17 -61.5 t-5 -63v-177h252q100 0 190 11.5t170 19.5l16 -10l2 -887l158 -47l-2 -86h-532l-2 86l159 57v744l-411 -2v-71.5v-136.5v-167v-167v-136v-72l164 -49l-3 -86h-538l-4 84l162 59v742h-412v-750l164 -49l-2 -86h-539zM422 999l412 2v76q0 31 5 66t15 69l-307 152 q-35 -10 -58.5 -33.5t-38 -54.5t-21.5 -64.5t-7 -64.5v-148z" />
<glyph unicode="&#xfb04;" horiz-adv-x="1896" d="M41 84q41 14 81 27.5t81 29.5v744h-154v73l154 56v22q0 80 25.5 161t82 145.5t144.5 105.5t213 41q115 0 184.5 -28.5t103.5 -67.5q55 55 135 89t189 34q70 0 129 -12.5t100 -28.5l152 22l18 -8q0 -340 1 -677t1 -677l164 -49l-6 -86h-532l-4 84l161 59v1096l-299 143 q-35 0 -56.5 -24.5t-34.5 -58t-18 -70.5t-5 -62v-168h288v-114h-288v-752l163 -47l-2 -86h-538l-2 84l162 57v744h-412v-752q41 -10 82 -23.5t82 -23.5l-2 -86h-539zM422 999h412v76q0 70 20 137l-307 152q-35 -10 -58.5 -33.5t-39 -54.5t-21.5 -64.5t-6 -64.5v-148z" />
<glyph horiz-adv-x="0" />
<glyph horiz-adv-x="682" />
<glyph unicode=" "  horiz-adv-x="616" />
<glyph unicode="&#x09;" horiz-adv-x="616" />
<glyph unicode="&#xa0;" horiz-adv-x="616" />
<glyph unicode="!" horiz-adv-x="614" d="M164 117q0 59 42 100t101 41q61 0 102.5 -41t41.5 -100t-41 -100.5t-103 -41.5q-68 0 -105.5 41t-37.5 101zM172 1305q-2 23 3 49t20.5 47.5t42 36t67.5 14.5q43 0 70.5 -14.5t43 -37t19.5 -49t2 -53.5l-86 -905h-90z" />
<glyph unicode="&#x22;" horiz-adv-x="604" d="M63 1305q-4 31 19.5 63.5t79.5 32.5q55 0 81.5 -32t20.5 -71l-67 -407h-72zM340 1305q-4 31 19.5 63.5t78.5 32.5t82 -32t21 -71l-68 -407h-72z" />
<glyph unicode="#" horiz-adv-x="1116" d="M90 383l27 123h157l68 315h-164l27 125h164l75 348h123l-73 -348h274l74 348h125l-76 -348h151l-26 -125h-152l-67 -315h157l-26 -123h-156l-82 -383h-125l82 383h-274l-82 -383h-125l82 383h-158zM399 506h275l67 315h-276z" />
<glyph unicode="$" d="M143 143l15 283l92 6l49 -188q29 -16 70 -33.5t90 -28.5v529q-63 31 -117.5 62.5t-94.5 70.5t-63.5 88t-23.5 115q0 121 73.5 211t225.5 118v191h100v-1776h-100v229q-78 10 -159 40t-157 83zM369 1065q0 -41 24.5 -72.5t65.5 -56.5v274q-90 -41 -90 -145zM647 -209v1776 h101v-191q68 -10 135 -34.5t131 -69.5l-19 -264l-90 -7l-49 177q-25 12 -52.5 21t-55.5 18v-420q74 -35 134 -74t103 -85t66.5 -102.5t23.5 -129.5q0 -135 -77.5 -240t-249.5 -141v-234h-101zM748 195q59 23 92.5 69t33.5 103q0 68 -32.5 113.5t-93.5 86.5v-372z" />
<glyph unicode="%" horiz-adv-x="1802" d="M90 997q0 76 16.5 154t56.5 141.5t108.5 103.5t174.5 40q104 0 173 -40t108 -103.5t54.5 -141.5t15.5 -154t-15.5 -154.5t-54.5 -143t-107.5 -105.5t-173.5 -41q-106 0 -174.5 41t-108.5 104.5t-56.5 142.5t-16.5 156zM274 1030q0 -61 4.5 -124.5t21.5 -115t52 -84 t97 -32.5q51 0 83.5 25.5t51 66.5t25.5 93t7 108q0 61 -5 123.5t-23.5 112.5t-53.5 82t-94 32q-53 0 -85.5 -25.5t-50 -67.5t-24 -93.5t-6.5 -100.5zM477 -80l727 1555h113l-725 -1555h-115zM1004 426q0 76 16 153.5t56 140t108.5 102.5t175.5 40q104 0 173 -40 t107.5 -102.5t54 -140t15.5 -153.5t-15.5 -154.5t-54 -143.5t-107.5 -105.5t-173 -40.5q-106 0 -175 39.5t-109 104t-56 143.5t-16 157zM1188 459q0 -63 4 -127t21.5 -115t52 -84t96.5 -33q51 0 84 26t51.5 68t25.5 94t7 107q0 61 -5 124t-23.5 113t-53.5 81.5t-94 31.5 q-53 0 -86 -26.5t-50.5 -67.5t-23.5 -92t-6 -100z" />
<glyph unicode="&#x26;" horiz-adv-x="1619" d="M152 342q0 61 15 130t50 133.5t90 121.5t135 98q-30 101 -30 203q0 164 105.5 261t289.5 97q66 0 129 -13t113.5 -37.5t81 -61.5t30.5 -82q0 -41 -34.5 -81t-82.5 -62l-270 202q-43 -6 -71.5 -28.5t-47 -54t-25.5 -67.5t-7 -69q0 -84 35.5 -179t91 -187.5t122 -173 t129.5 -136.5q20 25 43 56.5t44.5 66.5t41 70t33.5 65l-176 50q0 23 1 42t1 35q113 4 221.5 8.5t219.5 6.5l10 -94q-51 -31 -100.5 -73t-95.5 -91t-90 -102.5t-85 -104.5q92 -84 215 -147.5t297 -104.5l-8 -78q-14 -2 -27.5 -2h-29.5q-78 0 -156 15.5t-151.5 41t-141.5 60.5 t-121 74q-66 -61 -128 -97.5t-117.5 -53.5t-98.5 -21.5t-67 -4.5q-100 0 -172 30t-119 80t-69.5 116.5t-22.5 142.5zM379 408q6 -127 68.5 -208t195.5 -81q41 0 99.5 19.5t117.5 74.5q-106 90 -202.5 212t-161.5 265q-59 -43 -88 -119.5t-29 -162.5z" />
<glyph unicode="'" horiz-adv-x="409" d="M104 1305q-4 31 19.5 63.5t79.5 32.5q55 0 81.5 -32t20.5 -71l-67 -407h-72z" />
<glyph unicode="(" horiz-adv-x="692" d="M123 528q0 283 122 531t361 424l43 -49q-174 -199 -242.5 -423t-68.5 -468q0 -281 70.5 -506t240.5 -416l-45 -51q-113 84 -202 190.5t-151.5 230.5t-95 260t-32.5 277z" />
<glyph unicode=")" horiz-adv-x="692" d="M43 -379q168 190 239.5 415.5t71.5 506.5q0 244 -68.5 468t-242.5 423l43 49q240 -176 361.5 -424t121.5 -531q0 -141 -32.5 -277t-95 -260t-151.5 -230.5t-202 -190.5z" />
<glyph unicode="*" horiz-adv-x="946" d="M102 1051q2 59 18.5 117.5t55.5 111.5l264 -172l-88 295q57 18 123 18q63 0 117 -18l-82 -295l262 172q72 -98 72 -229l-312 -23l248 -186q-37 -51 -86 -86t-106 -58l-115 291l-117 -291q-53 20 -104 58.5t-86 85.5l246 186z" />
<glyph unicode="+" d="M133 496v149h385v385h156v-385h383v-149h-383v-387h-156v387h-385z" />
<glyph unicode="," horiz-adv-x="522" d="M100 -242q55 55 85 108.5t36 121.5q-47 10 -74.5 46t-27.5 83q0 57 41 98t104 41q72 0 110 -49t38 -119q0 -53 -19.5 -109.5t-54.5 -108.5t-84 -96t-107 -75z" />
<glyph unicode="-" horiz-adv-x="745" d="M98 444v158h551v-158h-551z" />
<glyph unicode="." horiz-adv-x="505" d="M111 117q0 59 41 100t100 41q63 0 103 -41t40 -100t-40 -100.5t-103 -41.5q-66 0 -103.5 41t-37.5 101z" />
<glyph unicode="/" horiz-adv-x="681" d="M2 -86l553 1563h125l-551 -1563h-127z" />
<glyph unicode="0" d="M68 711q0 133 22.5 264t81.5 234.5t161.5 168t262.5 64.5t262.5 -65.5t160.5 -170t79.5 -235.5t21.5 -260q0 -139 -21.5 -272.5t-79.5 -238t-160.5 -169t-262.5 -64.5t-262.5 65.5t-161.5 171t-81.5 238.5t-22.5 269zM305 766q0 -113 7 -227.5t36 -207.5t88.5 -151.5 t163.5 -58.5q90 0 146.5 46t88 122t43 172t11.5 196q0 113 -8.5 226.5t-39 204t-90 147.5t-163.5 57q-92 0 -147.5 -48t-86 -124t-40 -169t-9.5 -185z" />
<glyph unicode="1" d="M221 96l266 68v1053l-258 32v101l449 84l41 -48v-1230l252 -54l-2 -102q-86 2 -168 4t-199 2q-113 0 -201 -2t-178 -4z" />
<glyph unicode="2" d="M80 125q332 217 517 425t185 421q0 156 -72.5 219t-203.5 63q-92 0 -185.5 -28.5t-170.5 -71.5l-64 113q102 78 223 126t264 48q100 0 184.5 -24.5t145 -76t94 -130.5t33.5 -187q0 -121 -51 -240.5t-139 -230.5t-209 -209t-258 -174v-8l536 18l123 234l82 -19l-51 -377 l-21 -18q-100 0 -222 3t-257 3h-71.5h-79.5t-118 -1t-185 -3z" />
<glyph unicode="3" d="M100 53l45 129q115 -35 202 -45t149 -10q92 0 158.5 23.5t108.5 65.5t61.5 100.5t19.5 129.5q0 70 -25.5 120t-71 83t-107.5 47.5t-136 14.5t-142 -13l-47 105l433 422v4q-106 -4 -211 -7t-209 -5q-25 -47 -52.5 -94.5t-52.5 -92.5q-23 4 -42 9t-42 10l64 364 q113 -4 207 -6t192 -2h134.5h104.5t84 1t72 1l50 -139l-482 -398q0 -2 2 -4q104 0 197.5 -27.5t163 -80.5t110.5 -132t41 -182q0 -123 -43 -212t-115.5 -148t-170 -88t-207.5 -29q-133 0 -239.5 21.5t-203.5 64.5z" />
<glyph unicode="4" d="M-6 475l729 950l135 39l41 -24v-908h238v-133h-234l-2 -258q14 -4 37 -10t46.5 -13t45 -14.5t37.5 -11.5l-2 -92h-555l-4 88l170 59v252h-635zM217 530h459v641h-6q-43 -63 -103.5 -147t-123 -172t-123 -173t-103.5 -149z" />
<glyph unicode="5" d="M113 51l49 133q113 -35 203 -44t151 -9q180 0 263 81t83 241q0 74 -25.5 124t-70.5 81.5t-103.5 46t-121.5 14.5q-59 0 -126 -9.5t-120 -27.5l-100 63l129 611q2 0 4 2q2 0 6 4l8 8l569 4l78 133l78 -14l-37 -295l-18 -16q-143 4 -277.5 9t-275.5 9l-107 -362 q66 23 137.5 31t124.5 8q104 0 192.5 -27t153 -81t101.5 -133t37 -183q0 -123 -42 -215.5t-115 -152.5t-170 -90t-210 -30q-135 0 -244.5 22.5t-203.5 63.5z" />
<glyph unicode="6" d="M98 530q0 193 69 345.5t178.5 268.5t246.5 196.5t272 132.5l49 -113q-205 -109 -320.5 -221.5t-173 -221t-70.5 -210t-13 -189.5q0 -193 63.5 -298t204.5 -105q72 0 123 27.5t84 74.5t48 110.5t15 135.5q0 100 -21.5 164.5t-63 102.5t-100 54.5t-132.5 22.5l2 100 q29 4 55.5 6t55.5 2q90 0 169 -27.5t137 -83.5t92 -140t34 -195q0 -90 -29 -179t-89 -162t-154.5 -118t-225.5 -45q-143 0 -240.5 48t-155.5 127t-84 180.5t-26 209.5z" />
<glyph unicode="7" d="M121 1012l53 383l21 16q147 -2 249.5 -3t196.5 -1q92 0 188.5 1t231.5 3l61 -86l-665 -1345l-224 -21l-22 33l702 1225q0 2 -6 6l-590 -19l-116 -211z" />
<glyph unicode="8" d="M106 354q0 51 14.5 108.5t47.5 113t86 104.5t131 84q-92 57 -155.5 131t-63.5 176q0 82 33.5 150.5t94 118t143.5 77t179 27.5q74 0 153 -18.5t143.5 -61.5t106.5 -112t42 -169q0 -37 -10.5 -83t-36 -94t-69.5 -96t-111 -89q115 -59 185.5 -142t70.5 -214q0 -86 -35 -159 t-99.5 -125t-155.5 -82t-204 -30q-236 0 -363 105.5t-127 279.5zM338 375q0 -123 71.5 -186.5t192.5 -63.5q117 0 192.5 67.5t75.5 184.5q0 55 -25.5 98t-71.5 81t-112.5 73t-146.5 69q-102 -76 -139 -162.5t-37 -160.5zM393 1087q0 -55 24.5 -99t65.5 -80t95.5 -65.5 t113.5 -58.5q90 72 122 151t32 142q0 43 -14.5 83t-43 71t-72.5 48t-104 17q-55 0 -96 -17t-68.5 -46t-41 -67t-13.5 -79z" />
<glyph unicode="9" d="M102 938q0 86 29 176t90.5 163t155.5 119t225 46q143 0 239.5 -48t155 -128t82 -181.5t23.5 -207.5q0 -195 -67.5 -346.5t-177 -266t-246 -195.5t-271.5 -132l-51 108q205 109 321.5 222.5t174 222t71.5 211t14 188.5q0 193 -65.5 298t-206.5 105q-72 0 -122 -27.5 t-82 -74.5t-46 -110.5t-14 -135.5q0 -102 21.5 -165.5t61.5 -101.5t98 -53.5t132 -21.5l-2 -100q-29 -6 -55.5 -8t-54.5 -2q-90 0 -169 28.5t-137.5 83.5t-92.5 139t-34 195z" />
<glyph unicode=":" horiz-adv-x="505" d="M111 117q0 59 41 100t100 41q63 0 103 -41t40 -100t-40 -100.5t-103 -41.5q-66 0 -103.5 41t-37.5 101zM111 737q0 59 41 100.5t100 41.5q63 0 103 -41.5t40 -100.5t-40 -100t-103 -41q-66 0 -103.5 41t-37.5 100z" />
<glyph unicode=";" horiz-adv-x="505" d="M84 -242q55 55 86 108.5t37 121.5q-49 10 -77 46t-28 83q0 57 41 98t105 41q72 0 110.5 -49t38.5 -119q0 -53 -19.5 -109.5t-55 -108.5t-85 -96t-106.5 -75zM111 737q0 59 41 100.5t100 41.5q63 0 103 -41.5t40 -100.5t-40 -100t-103 -41q-66 0 -103.5 41t-37.5 100z" />
<glyph unicode="&#x3c;" d="M178 498v131l832 399v-162l-635 -305q16 -6 65 -28.5t113.5 -53t138.5 -65.5t138.5 -66t113.5 -53.5t66 -28.5v-162z" />
<glyph unicode="=" d="M170 340v149h850v-149h-850zM170 664v151h850v-151h-850z" />
<glyph unicode="&#x3e;" d="M178 104v162l637 295q-16 6 -65.5 29.5t-115 55.5t-139 68t-138 67.5t-113.5 55t-66 29.5v162l832 -399v-131z" />
<glyph unicode="?" horiz-adv-x="952" d="M102 1303q0 39 30 69.5t81 50t115.5 29.5t136.5 10q227 0 326.5 -73.5t99.5 -196.5q0 -63 -31 -115.5t-78 -98.5t-101 -87t-101.5 -83t-78 -87t-30.5 -98q0 -16 8 -38t20.5 -43.5t29 -42t34.5 -34.5l-53 -78q-111 39 -177.5 119t-66.5 172q0 47 29 91t71 86t92 82t92 80 t70.5 81t28.5 86q0 57 -42 101t-146 61l-242 -197q-47 16 -82 54t-35 100zM311 117q0 59 42 100t102 41q63 0 103 -41t40 -100t-40 -100.5t-103 -41.5q-66 0 -105 41t-39 101z" />
<glyph unicode="@" horiz-adv-x="2185" d="M184 610q0 190 72 354t199 285t303 189.5t383 68.5q190 0 348 -55t271.5 -158.5t177 -252t63.5 -334.5q0 -127 -36 -225.5t-98.5 -167t-147.5 -104.5t-183 -36q-88 0 -168 39t-113 129l-133 -119q-80 -23 -149 -22q-61 0 -107.5 20.5t-77 54t-46 78.5t-15.5 95 q0 18 2 41.5t11.5 49t27.5 50t49 43.5q20 12 53 25.5t81 24.5t117 19.5t165 12.5v78q0 78 -34 107.5t-118 29.5q-39 0 -109.5 -9.5t-156.5 -35.5l-35 114q82 43 172 68t183 25q139 0 214.5 -61.5t75.5 -217.5v-364q0 -53 30 -94.5t114 -41.5q55 0 106 26t89 75t61.5 118.5 t23.5 157.5q0 156 -52 281t-145 213t-224.5 136t-286.5 48q-174 0 -320.5 -58.5t-254 -159.5t-168 -238.5t-60.5 -295.5q0 -166 56.5 -305t156.5 -240.5t237.5 -158.5t296.5 -57q55 0 142.5 11t173.5 42l43 -129q-100 -43 -193.5 -56.5t-173.5 -13.5q-193 0 -355.5 68.5 t-282.5 190.5t-187.5 287t-67.5 355zM930 465q0 -49 24.5 -79t75.5 -30q43 0 99.5 18.5t103.5 51.5v195q-106 -6 -166.5 -24.5t-91.5 -41.5t-38 -47.5t-7 -42.5z" />
<glyph unicode="A" horiz-adv-x="1464" d="M16 102l156 45l393 1024q23 59 44.5 118t39.5 122l176 33l13 -6l497 -1293l119 -41l-6 -104h-565l-6 100l170 50l-105 292h-491l-99 -295l193 -43l-2 -104h-523zM494 571h403l-90 260l-109 314h-10l-106 -316z" />
<glyph unicode="B" horiz-adv-x="1390" d="M72 94l184 58v1114l-166 49l12 96q66 -2 124.5 -3t117.5 -1q100 0 217 2t213 2q133 0 216 -35t129 -84t62.5 -104t16.5 -96q0 -61 -23.5 -112.5t-60.5 -88.5t-80 -59.5t-82 -30.5v-8q154 -29 245 -127.5t91 -251.5q0 -92 -34.5 -168t-95 -130.5t-142.5 -85t-176 -30.5 q-104 0 -215 3t-222 3h-157.5t-165.5 -4zM489 176q20 -6 49 -11t59 -9t57.5 -6.5t47.5 -2.5q178 0 264.5 77t86.5 200q0 61 -20.5 113.5t-67.5 91.5t-126 62.5t-198 25.5l-16 102l14 17q106 2 170.5 28.5t99.5 60t47.5 69.5t12.5 59q0 113 -82 163t-217 50q-12 0 -35 -1 t-48.5 -2t-52 -4.5t-45.5 -5.5v-1077z" />
<glyph unicode="C" horiz-adv-x="1280" d="M123 682q0 137 32.5 273.5t107.5 245t195 176t294 67.5q78 0 158.5 -14.5t176.5 -67.5l46 80h84l6 -426l-90 -10l-78 200q-59 41 -128 57.5t-155 16.5q-111 0 -187.5 -46t-124.5 -125t-68.5 -184.5t-20.5 -224.5q0 -109 16 -209t63.5 -177.5t133.5 -124t225 -46.5 q84 0 183.5 11.5t205.5 46.5l39 -133q-104 -53 -233.5 -77t-237.5 -24q-317 0 -480 177.5t-163 537.5z" />
<glyph unicode="D" horiz-adv-x="1517" d="M72 92l180 55v1117l-164 47l12 98q55 -2 88 -3t58.5 -2t52.5 -1h70q53 0 96 1t81 3t74.5 3t77.5 1q199 0 333 -60.5t215 -158.5t115 -222t34 -251q0 -61 -9.5 -139t-36 -158t-72.5 -156t-120 -135t-177 -95t-245 -36q-12 0 -58 1t-99.5 2t-100.5 2t-59 1h-91h-74t-76 -1 t-95 -3zM487 162q41 -10 98.5 -13.5t102.5 -3.5q131 0 220 48.5t142.5 128t77 184t23.5 217.5q0 162 -41 266.5t-111.5 164.5t-165 84t-200.5 24q-39 0 -79 -1t-67 -6v-1093z" />
<glyph unicode="E" horiz-adv-x="1296" d="M72 92l184 55v1117l-166 49l12 96q51 -2 125 -3t150 -1h142.5h107.5q70 0 127 1t112.5 2t112.5 2t129 3l22 -12l9 -387l-92 -15l-86 256h-469v-458l507 16v-162l-507 17v-512h109.5t151 1t151.5 2t110 1l133 268l78 -20l-51 -388l-23 -20q-74 0 -134.5 1t-120.5 2 t-125.5 2t-149.5 1h-122t-141.5 -1t-144.5 -2t-131 -3z" />
<glyph unicode="F" horiz-adv-x="1193" d="M72 92l182 55v1117l-164 49l10 96q51 -2 125 -3t150 -1h142.5h107.5q70 0 129 1t115.5 2t114.5 2t130 3l23 -12l6 -387l-92 -15l-84 256h-478v-481l508 17v-162l-508 16v-495l201 -48l-4 -102h-610z" />
<glyph unicode="G" horiz-adv-x="1482" d="M119 680q0 139 34.5 275.5t111.5 245t202 176t305 67.5q76 0 163 -14.5t185 -67.5l43 80h86l6 -430l-92 -13l-76 207q-59 41 -129.5 58.5t-158.5 17.5q-119 0 -201 -46t-133 -125t-74.5 -185.5t-23.5 -227.5q0 -117 18 -219t66.5 -178t132.5 -119t215 -43q18 0 46.5 2 t63.5 6.5t74 10.5t76 16v408l-182 55l4 94h536l4 -108l-141 -35v-604l-76 -21l-84 74q-88 -35 -187 -52.5t-173 -17.5q-166 0 -287 48t-199.5 140.5t-116.5 224.5t-38 300z" />
<glyph unicode="H" horiz-adv-x="1652" d="M82 94l184 58v1105l-182 56l4 94h608l4 -102l-192 -48v-454h627v454l-179 56l5 94h606l4 -102l-195 -48v-1105l195 -48l-2 -104h-611l-6 94l183 58v514h-627v-514l192 -48l-4 -104h-610z" />
<glyph unicode="I" horiz-adv-x="866" d="M123 92l186 58v1110l-186 55l4 92h612l4 -100l-198 -47v-1110l198 -48l-4 -102h-612z" />
<glyph unicode="J" horiz-adv-x="833" d="M-10 -330q182 82 261 204t79 292v1094l-193 57l4 90h619l2 -100l-197 -47v-1041q0 -158 -41 -270.5t-112.5 -189t-171 -125t-217.5 -74.5z" />
<glyph unicode="K" horiz-adv-x="1470" d="M72 92l186 58v1110l-186 55l4 92h612l4 -100l-198 -47v-1110l198 -48l-4 -102h-612zM555 709v39l428 520l-143 45l4 98h485v-106q-96 -41 -176 -100.5t-154 -139.5l-254 -283l678 -712l-20 -72l-207 -45z" />
<glyph unicode="L" horiz-adv-x="1273" d="M72 1315l4 92h612l2 -100l-196 -47v-1104h112.5t160.5 1t161 2t112 1l140 278l73 -18l-51 -400l-22 -20q-74 0 -136.5 1l-125 2t-130 2t-151.5 1h-124t-145.5 -1t-149.5 -2t-134 -3l-8 90l182 60v1110z" />
<glyph unicode="M" horiz-adv-x="2109" d="M63 100l209 54l86 1103l-202 60l12 96q76 0 132 -1t108.5 -1h108.5t132 2q8 -35 16.5 -62.5t20.5 -56.5l217 -506l158 -380h14l170 415l252 590q70 -3 165 -3h49q126 1 249 3l4 -102l-205 -54l82 -1105l197 -48l-4 -104h-627l-4 94l184 58l-47 978h-10l-449 -1069h-127 l-460 1055l-9 -2l-43 -964l215 -46l-4 -104h-585z" />
<glyph unicode="N" horiz-adv-x="1701" d="M57 96l211 58l23 1101l-209 60l14 96q120 -3 220 -3h48q118 1 179 3q35 -72 75 -125l416 -563l240 -328h6q0 82 -2 197t-4 236.5t-4 236.5t-4 197l-197 51l4 94h565l4 -102l-206 -48q-2 -70 -4 -170t-3.5 -216.5t-3.5 -240.5t-4 -241t-4 -218t-2 -171l-123 -29l-540 719 l-316 428l-6 -2l10 -969l209 -43l-4 -104h-584z" />
<glyph unicode="O" horiz-adv-x="1527" d="M123 688q0 152 37 288t114.5 239.5t201.5 165t296 61.5q150 0 267.5 -51.5t199.5 -144.5t124 -226t42 -297q0 -154 -37 -291t-114.5 -240.5t-201.5 -164t-298 -60.5q-305 0 -468 188.5t-163 532.5zM371 729q0 -135 20.5 -246.5t66.5 -190.5t121.5 -123t186.5 -44 t185.5 47t121.5 125t67.5 181.5t20.5 213.5q0 123 -20.5 232.5t-67.5 191.5t-123.5 129t-189.5 47q-111 0 -185.5 -47t-119.5 -126t-64.5 -180t-19.5 -210z" />
<glyph unicode="P" horiz-adv-x="1296" d="M72 92l182 58v1116l-168 49l14 94q33 0 60.5 -1t56.5 -1t64.5 -1t85.5 -1q96 0 194 3t193 3q106 0 195 -23.5t152.5 -73.5t98.5 -127t35 -181q0 -90 -33 -171t-99.5 -142.5t-165.5 -97.5t-230 -36q-35 0 -92.5 3t-127.5 18v-430l199 -46l-2 -104h-608zM487 719 q39 -6 79 -9t61 -3q111 0 181.5 24.5t110 64.5t55 90t15.5 99q0 152 -94 217.5t-254 65.5q-76 0 -154 -17v-532z" />
<glyph unicode="Q" horiz-adv-x="1527" d="M123 688q0 152 37 288t114.5 239.5t201.5 165t296 61.5q150 0 267.5 -52.5t199.5 -147.5t124 -227t42 -292q0 -133 -27.5 -255t-86 -220t-149.5 -167t-218 -95q80 -74 141 -120t113.5 -75t101.5 -46t102 -32l-8 -90q-52 -8 -107 -8h-23q-66 2 -135 19.5t-139.5 55.5 t-144.5 103q-6 4 -29.5 26.5t-54 51.5t-60.5 58.5t-48 47.5q-123 18 -218.5 76t-160 150t-98 215t-33.5 270zM371 729q0 -117 20.5 -226.5t66.5 -193.5t121.5 -134t186.5 -50t185.5 47t121.5 125t67.5 181.5t20.5 213.5q0 113 -20.5 221.5t-67.5 192.5t-123.5 135t-189.5 51 q-111 0 -185.5 -47t-119.5 -126t-64.5 -180t-19.5 -210z" />
<glyph unicode="R" horiz-adv-x="1409" d="M72 92l180 58v1116l-166 49l12 94q35 0 62.5 -1t56.5 -1t64.5 -1t85.5 -1q96 0 194 3t193 3q102 0 190 -20.5t152.5 -66.5t100.5 -118.5t36 -175.5q0 -66 -17.5 -126t-56.5 -112.5t-98.5 -93.5t-145.5 -65l457 -576l-20 -63l-199 -43l-434 647h-31q-33 2 -84 5t-117 15 v-468l197 -46l-4 -104h-604zM487 760q39 -8 84 -10t66 -2q111 0 179.5 23.5t106.5 62t52 85t14 93.5q0 74 -24.5 123t-70.5 78.5t-110.5 42t-142.5 12.5q-76 0 -154 -17v-491z" />
<glyph unicode="S" horiz-adv-x="1224" d="M100 451l88 10l80 -236q72 -55 158 -77.5t158 -22.5q158 0 229.5 62.5t71.5 154.5q0 55 -24.5 100t-71 83t-110 71t-138.5 63q-102 43 -179 85t-130.5 90.5t-80 106.5t-26.5 134q0 70 27.5 136.5t86 118.5t147.5 83t212 31q53 0 142 -11.5t192 -52.5l35 60h77l7 -439 l-86 -10l-84 230q-61 33 -136 50t-147 17q-104 0 -165.5 -43t-61.5 -127q0 -78 102 -140.5t281 -139.5q82 -35 150.5 -75t119.5 -91t80 -118t29 -155q0 -86 -32 -163.5t-98.5 -138t-172 -95.5t-252.5 -35q-31 0 -75 3t-91 11.5t-94.5 19.5t-84.5 30l-38 -62h-82z" />
<glyph unicode="T" horiz-adv-x="1296" d="M20 997l7 402l26 14q147 -4 288.5 -6t305.5 -2q154 0 299.5 2t296.5 6l27 -14l6 -402l-92 -12l-94 285h-324v-1120l199 -50l-4 -100h-613l-6 90l188 60v1120h-323l-94 -285z" />
<glyph unicode="U" horiz-adv-x="1568" d="M61 1313l5 94h608l4 -102l-193 -48v-741q0 -80 11.5 -150.5t47.5 -123t103.5 -82t177.5 -29.5q106 0 171 33t101 88t48 129t12 154v722l-180 56l4 94h543l4 -102l-195 -48l-2 -804q0 -139 -48 -232.5t-127 -150t-180.5 -81t-209.5 -24.5q-102 0 -196.5 23.5t-167 78 t-115.5 141.5t-43 214v833z" />
<glyph unicode="V" horiz-adv-x="1468" d="M10 1311l13 98h385q2 -53 15 -110.5t34 -112.5l180 -473l170 -469h8l152 481l172 526l-203 58l4 100h516l2 -102q-88 -41 -139 -123t-98 -207l-363 -985l-182 -27l-531 1303z" />
<glyph unicode="W" horiz-adv-x="2154" d="M10 1311l13 98h380q4 -53 19.5 -112.5t34.5 -116.5l137 -422l168 -514h10l150 477l96 303l-90 244l-140 43l13 98h399q4 -53 19.5 -112.5t35.5 -116.5l156 -471l143 -441h11l114 439l146 544l-203 58l2 100h518l6 -102q-96 -47 -145 -137.5t-86 -200.5l-303 -977 l-187 -27l-165 459l-146 405h-12l-143 -411l-148 -426l-182 -27l-484 1303z" />
<glyph unicode="X" horiz-adv-x="1376" d="M20 104q63 16 113.5 41t90.5 58t74 74.5t69 91.5l211 319l-353 574l-153 47l12 98h75.5h117h117h75.5q4 -33 15.5 -68.5t24.5 -69.5t29.5 -63.5t28.5 -48.5l162 -258l223 371l-153 41l6 100h97.5h154.5h154.5h97.5l2 -104q-59 -18 -105.5 -48t-84.5 -66t-70.5 -77 t-63.5 -84l-176 -254l383 -616l162 -56l-6 -106h-566l-6 102l137 41l-256 422l-249 -426l143 -39l-6 -100h-100.5h-161.5h-161h-99z" />
<glyph unicode="Y" horiz-adv-x="1304" d="M10 1309l6 100h390q4 -53 18 -102.5t43 -102.5l233 -448h13l258 499l-185 50l5 102l499 2l4 -104q-49 -20 -86 -46t-67.5 -59t-60 -76t-62.5 -100l-232 -399v-473l197 -48l-2 -104h-621l-4 94l187 58v421l-377 687z" />
<glyph unicode="Z" horiz-adv-x="1282" d="M61 102q10 14 49.5 68.5t95.5 134.5t123.5 177.5t138.5 197.5t139.5 197.5t123.5 176.5t93 133t48 68l-520 -4l-100 -266l-88 14l24 402l19 12q227 -4 480 -4t480 2l29 -106q-10 -14 -48 -67.5t-94.5 -132.5t-125 -176.5t-139 -197.5t-139 -197.5t-125 -177.5t-94.5 -134 t-48 -68q160 2 317.5 4t315.5 6l139 285l80 -19l-57 -414l-21 -16q-123 0 -258 1t-273.5 1t-273.5 -1t-260 -1z" />
<glyph unicode="[" horiz-adv-x="626" d="M143 -342v1763h402v-90h-199v-1585h199v-88h-402z" />
<glyph unicode="\" horiz-adv-x="681" d="M4 1477h125l553 -1563h-127z" />
<glyph unicode="]" horiz-adv-x="626" d="M82 -244h199v1563h-199v102h401v-1763h-401v98z" />
<glyph unicode="^" horiz-adv-x="1071" d="M82 700l381 711h137l387 -711h-158l-301 553l-288 -553h-158z" />
<glyph unicode="_" horiz-adv-x="1024" d="M0 -160h1024v-131h-1024v131z" />
<glyph unicode="`" horiz-adv-x="1038" d="M258 1413l160 129l260 -379l-96 -76z" />
<glyph unicode="a" horiz-adv-x="1083" d="M59 254q0 20 3.5 50t14.5 60.5t32.5 60.5t58.5 52q25 14 63.5 30.5t98 30t142.5 22.5t198 13v103q0 98 -43 134t-144 36q-49 0 -134 -10.5t-185 -38.5l-35 118q92 51 198.5 79t217.5 28q166 0 255 -70.5t89 -255.5v-538l162 -34v-87q-43 -29 -108.5 -45.5t-123.5 -16.5 q-23 0 -46 3.5t-44.5 18.5t-37 46t-19.5 86l-4 2l-140 -131q-47 -12 -91 -19.5t-87 -7.5q-72 0 -126 21.5t-91 59.5t-55.5 89.5t-18.5 110.5zM291 274q0 -63 31.5 -101t97.5 -38q55 0 122.5 24.5t127.5 63.5v246q-131 -8 -207 -31.5t-114 -52.5t-48 -58.5t-10 -52.5z" />
<glyph unicode="b" horiz-adv-x="1167" d="M6 1339v86l340 48l19 -15v-584l4 -2l139 129q43 12 93 17.5t79 5.5q119 0 196.5 -45t124 -116.5t65.5 -162t19 -182.5q0 -96 -20.5 -192.5t-71.5 -175t-140 -128t-226 -49.5q-66 0 -148 20.5t-153 74.5l-84 -99l-95 25v1306zM367 180q47 -23 107.5 -32t113.5 -9 q127 0 196.5 91.5t69.5 261.5q0 68 -10 132t-38 114t-74 80t-116 30q-63 0 -132.5 -24.5t-116.5 -53.5v-590z" />
<glyph unicode="c" horiz-adv-x="983" d="M82 485q0 117 35 215.5t100.5 170t159.5 111.5t215 40q68 0 128 -12.5t104 -35t70 -55t26 -73.5q0 -47 -32 -84t-77 -55l-246 184q-68 -10 -115 -46t-76.5 -87t-42 -113.5t-12.5 -128.5q0 -92 14.5 -160.5t50.5 -115.5t96.5 -71t152.5 -24q23 0 54.5 4.5t66 10.5t70.5 14 t67 19l39 -115q-37 -27 -83 -46.5t-95.5 -32.5t-98.5 -19.5t-92 -6.5q-246 0 -362.5 126t-116.5 386z" />
<glyph unicode="d" horiz-adv-x="1159" d="M72 475q0 115 25.5 215.5t80.5 175t142.5 117.5t209.5 43q55 0 124 -12.5t134 -42.5v329l-143 39v86l340 48l19 -15v-1313l145 -36v-86l-301 -48l-19 11l-30 149l-6 2l-148 -139q-49 -12 -91 -18.5t-83 -6.5q-109 0 -184.5 38t-122.5 104.5t-69.5 159t-22.5 200.5z M301 500q0 -68 12.5 -131.5t40 -111.5t73.5 -76.5t114 -28.5t132 24.5t115 54.5v590q-47 20 -106 30.5t-113 10.5q-76 0 -127 -31.5t-82.5 -83t-45 -116.5t-13.5 -131z" />
<glyph unicode="e" horiz-adv-x="1073" d="M82 487q0 98 22.5 193.5t78 171.5t149.5 123t239 47q135 0 218 -42t130.5 -108.5t63.5 -146.5t18 -156l-18 -22l-666 -35q0 -92 16.5 -161.5t54.5 -117t98.5 -71t150.5 -23.5q47 0 124 13.5t161 48.5l39 -109q-78 -53 -182.5 -86t-215.5 -33q-129 0 -221 35t-149.5 101.5 t-84 162t-26.5 215.5zM322 608l419 43q0 41 -7 83t-27.5 76t-57.5 55.5t-98 21.5q-70 0 -114 -28t-69.5 -69.5t-35.5 -90t-10 -91.5z" />
<glyph unicode="f" horiz-adv-x="776" d="M43 84l160 59l2 742h-154v73l154 56v30q0 80 23.5 159t73.5 141.5t128 100.5t186 38q106 0 169 -37t63 -96q0 -45 -33 -83t-74 -55l-229 134q-49 -27 -69.5 -77t-20.5 -110v-160h272v-114h-272v-750l164 -49l-2 -86h-539z" />
<glyph unicode="g" horiz-adv-x="1226" d="M51 -258q0 43 19.5 81t53.5 69.5t78 58t95 47.5v2q-123 16 -167 52t-44 93q0 18 6 43t21 41l184 111q0 2 1 2t1 2q-98 45 -139 123t-41 164q0 80 28.5 151.5t85 123.5t140.5 83t192 31q113 0 198 -31t144 -86q51 51 122 94t140 43q18 0 38 -11t20 -44q0 -25 -9.5 -61.5 t-37.5 -77.5l-217 -15v-6q23 -35 33 -77.5t10 -83.5q0 -70 -24 -136.5t-76 -119t-139 -85t-212 -32.5q-47 0 -87 5t-79 13q-39 -25 -52 -43t-13 -35q0 -20 34.5 -32.5t80.5 -19.5t92.5 -10t70.5 -3q158 -6 260.5 -20.5t162.5 -44t84 -73.5t24 -108q0 -92 -57.5 -170 t-158 -132t-233.5 -82q-101 -21 -213 -21q-37 0 -74 2q-98 6 -164.5 23.5t-106.5 46t-57.5 67.5t-17.5 88zM268 -199q0 -31 8.5 -58.5t35 -49t75.5 -33.5t131 -12q70 0 138.5 12t120.5 36.5t85 61.5t33 86q0 59 -41 84t-110.5 32t-158.5 7t-188 13q-76 -45 -102.5 -93.5 t-26.5 -85.5zM350 655q0 -47 8.5 -91t31 -77.5t63.5 -54t108 -20.5q68 0 111 21.5t67.5 55t33.5 74.5t9 80q0 47 -7 92t-30.5 81t-66.5 58.5t-113 22.5q-68 0 -109.5 -23.5t-65 -59.5t-32 -78t-8.5 -81z" />
<glyph unicode="h" horiz-adv-x="1251" d="M35 86l155 55v266.5t-1 307t-1 311.5v279q-35 10 -70.5 19t-70.5 19v87l338 45l18 -9v-604l3 -2l149 139q51 12 104.5 18.5t98.5 6.5q139 0 214 -62.5t75 -218.5v-610l141 -43v-45t-2 -45h-504q0 23 -1 44.5t-1 43.5q35 14 73 26.5t74 24.5v514q0 98 -34.5 144.5 t-128.5 46.5q-57 0 -125 -21.5t-133 -60.5v-629q37 -10 74.5 -21.5t74.5 -21.5q0 -23 -1 -45t-1 -45h-514z" />
<glyph unicode="i" horiz-adv-x="700" d="M82 84l160 59v709q-35 10 -71 19.5t-71 19.5v86l338 51l19 -8q0 -223 1 -443.5t3 -443.5l157 -49q0 -23 -1 -42t-1 -42h-530q-2 23 -3 42t-1 42zM199 1315q0 59 42 100t101 41q63 0 104 -41t41 -100t-40.5 -101.5t-104.5 -42.5q-66 0 -104.5 42.5t-38.5 101.5z" />
<glyph unicode="j" horiz-adv-x="636" d="M-4 -406q86 55 134 112.5t72.5 119t30 129.5t5.5 141v756q-35 10 -71 19.5t-71 19.5v86l340 51l19 -8v-954q0 -207 -101.5 -355.5t-312.5 -214.5zM195 1315q0 59 42 100t101 41q63 0 104 -41t41 -100t-41 -101.5t-104 -42.5q-66 0 -104.5 42.5t-38.5 101.5z" />
<glyph unicode="k" horiz-adv-x="1138" d="M10 86l162 57v56.5v130.5v180v204.5v206t-1 182.5t-1 134v63l-139 39v86l340 52l16 -9l2 -1333l143 -47l-2 -88h-516zM412 510v37l313 325l-117 46l2 81l441 15v-88q-176 -61 -322 -203l-141 -137l536 -525l-16 -61l-186 -49z" />
<glyph unicode="l" horiz-adv-x="700" d="M82 84l160 59v1157l-142 37v88l340 52q8 -4 17 -11l4 -1331l157 -49q0 -23 -1 -43t-1 -43h-532z" />
<glyph unicode="m" horiz-adv-x="1888" d="M74 86l155 55v709q-35 10 -70.5 19.5t-70.5 19.5v88l297 43l12 -8l45 -150q2 0 2 -1t2 -1l140 139q49 12 97 18.5t83 6.5q104 0 181 -38t100 -138q39 37 75.5 75t75.5 76q49 12 99.5 18.5t84.5 6.5q137 0 214 -62.5t77 -218.5v-610l142 -43l-3 -90h-503l-4 88 q37 14 74.5 26.5t74.5 24.5q1 64 1 127.5t-1 127.5q-2 128 -2 259q0 98 -34 144.5t-126 46.5q-39 0 -103.5 -20.5t-129.5 -61.5q2 -10 2 -22.5v-24.5v-582l149 -45l-4 -88h-510q0 23 -1 44.5t-1 43.5q37 14 74 26.5t74 24.5v514q-2 98 -35 144.5t-125 46.5 q-47 0 -110.5 -20.5t-127.5 -61.5v-284.5t2 -344.5q37 -10 75 -21.5t75 -21.5l-4 -90h-514z" />
<glyph unicode="n" horiz-adv-x="1300" d="M74 86l155 55v711l-141 37v86q72 12 144.5 22.5t144.5 22.5l18 -8l47 -150q2 0 2 -1t2 -1l148 139q51 12 107.5 18.5t103.5 6.5q137 0 208.5 -65.5t71.5 -215.5v-610l144 -43l-4 -90h-504l-2 88l147 51v514q0 98 -34.5 144.5t-129.5 46.5q-57 0 -122.5 -21.5 t-135.5 -60.5v-284.5t2 -344.5l148 -43l-2 -90h-514z" />
<glyph unicode="o" horiz-adv-x="1150" d="M82 492q0 111 32.5 207t97 167.5t159 113.5t217.5 42t213 -38t149.5 -107.5t89 -164.5t29.5 -208q0 -106 -28.5 -202.5t-90 -169.5t-156 -116t-225.5 -43q-135 0 -228 40t-150.5 110t-83 165t-25.5 204zM315 518q0 -74 9.5 -146.5t37 -130t79 -93t134.5 -35.5 q78 0 129.5 31.5t81 84t42 118t12.5 132.5q0 78 -12.5 150.5t-42 130t-80 91.5t-127.5 34q-78 0 -129.5 -34t-81 -87t-41 -118t-11.5 -128z" />
<glyph unicode="p" horiz-adv-x="1179" d="M6 -362l158 55l2 1159l-146 37v86l302 47l18 -10l33 -150l4 -2l147 139q49 12 91 18.5t85 6.5q104 0 179 -39t124.5 -106.5t72 -159.5t22.5 -201q0 -115 -24.5 -214t-80 -173t-142.5 -117t-212 -43q-55 0 -124 10.5t-134 43.5v-336l170 -49l-4 -89h-537zM381 176 q43 -18 104.5 -29.5t116.5 -11.5q76 0 127 32t82 83t44 115.5t13 132.5t-12 131t-40 111t-73 77t-112 29q-70 0 -134.5 -24.5t-115.5 -55.5v-590z" />
<glyph unicode="q" horiz-adv-x="1181" d="M82 473q0 96 19.5 194.5t71.5 177.5t141 129t231 50q70 0 147.5 -21.5t151.5 -72.5l86 98l88 -24l2 -1317l158 -49l-2 -87h-535l-4 89l164 55q0 16 1 77.5t1 134.5v137.5v84.5h-4l-140 -133q-43 -12 -93 -17.5t-79 -5.5q-117 0 -194.5 44t-124.5 115t-66.5 160t-19.5 181 zM311 502q0 -68 11.5 -131.5t38 -112.5t72.5 -78.5t118 -29.5q63 0 132 24.5t116 52.5l2 590q-49 23 -108.5 32t-112.5 9q-127 0 -198 -93t-71 -263z" />
<glyph unicode="r" horiz-adv-x="884" d="M82 86l162 57v711l-142 37v86l304 47l18 -10l35 -144l4 -2q31 29 68.5 59.5t80.5 55.5t91.5 41t99.5 16q25 0 43 -16t18 -57q0 -49 -17.5 -102.5t-49.5 -94.5l-336 25v-662l160 -47l-3 -86h-532z" />
<glyph unicode="s" horiz-adv-x="960" d="M82 334q16 4 35.5 7t36.5 7l88 -182q43 -31 99 -44t97 -13q90 0 148.5 31.5t58.5 103.5q0 39 -16.5 66.5t-46 48t-68.5 38t-84 37.5q-59 27 -116.5 52.5t-103.5 59.5t-73.5 80t-27.5 113q0 55 20.5 106.5t64.5 90.5t115.5 62.5t175.5 23.5q72 0 161 -15.5t167 -56.5 q0 -68 -1 -134t-1 -134l-78 -8l-76 166q-47 29 -95 38t-77 9q-66 0 -106.5 -29t-40.5 -86q0 -29 13.5 -50.5t42 -39.5t72.5 -36.5t103 -43.5q74 -31 130.5 -59.5t96.5 -65.5t60.5 -84t20.5 -114q0 -66 -26 -122.5t-79 -97.5t-136 -64.5t-196 -23.5q-98 0 -190 19.5 t-152 54.5z" />
<glyph unicode="t" horiz-adv-x="778" d="M41 885v76q39 16 78 29.5t80 29.5l73 217l115 35q4 -4 9 -7t10 -8v-258h303v-114h-303v-598q0 -74 31.5 -113t113.5 -39q43 0 86 8.5t108 22.5q8 -29 16.5 -56.5t16.5 -56.5q-160 -78 -321 -78q-80 0 -132.5 17.5t-83 54.5t-43 93.5t-12.5 135.5v609h-145z" />
<glyph unicode="u" horiz-adv-x="1277" d="M61 891v86l338 45l19 -8q0 -168 1 -335t1 -337q0 -98 37 -146.5t127 -48.5q47 0 118.5 23t139.5 63v621l-142 37v88l340 45q6 -2 19 -10v-869q39 -10 78 -18t80 -18v-89l-308 -40l-16 6l-47 149q-2 0 -4 2q-78 -74 -150 -137q-49 -12 -105.5 -18.5t-101.5 -6.5 q-135 0 -209.5 61.5t-74.5 217.5v598q-35 10 -70 19.5t-70 19.5z" />
<glyph unicode="v" horiz-adv-x="1157" d="M41 905v92l346 15q4 -49 19.5 -111.5t37.5 -120.5l195 -518h10q4 10 20.5 56.5t39 110t48 136t48 136t39 108.5t22.5 57l-127 41v92q18 0 72.5 2.5t116 4.5t116 4t72.5 2l10 -90q-66 -51 -110.5 -128t-87.5 -176l-269 -622l-129 -27q-10 20 -39.5 90t-68.5 162t-83 197.5 t-83 198t-68.5 161t-40.5 90.5z" />
<glyph unicode="w" horiz-adv-x="1658" d="M25 903v92l348 17q2 -53 14 -121t29 -121l153 -477h9q4 14 18 68.5t34.5 129t43 157.5t42 158t35 129t19.5 69h172q6 -16 26.5 -71.5t47 -131.5t57.5 -163t57.5 -163t47 -132t26.5 -71h8q4 10 16.5 55.5t29 108t36 134t36 134t28.5 107.5t16 55l-127 43v90q18 0 71.5 2.5 t113 3.5t112.5 3t72 2l10 -90q-72 -55 -115 -131t-77 -183l-205 -612l-129 -25l-281 715h-10l-211 -690l-129 -25q-8 20 -34.5 89t-60.5 162t-74 197.5t-73.5 198t-60.5 162t-35 90.5z" />
<glyph unicode="x" horiz-adv-x="1122" d="M20 96q63 18 113.5 45t88.5 56.5t69 61.5t57 60l129 148q-66 96 -132 192.5t-136 200.5l-156 47v90l375 17q10 -68 42 -129.5t58 -104.5l78 -125q18 25 39 53.5t41.5 56.5t38.5 53.5t33 45.5l-127 43l2 90q61 2 113.5 3t102.5 3.5t101 4.5t111 6l12 -99 q-72 -41 -141.5 -104t-122.5 -123l-135 -151q63 -100 140 -209t142 -199l146 -37l-6 -92l-318 -16q-23 37 -51.5 84t-60 96t-62.5 97t-57 89q-39 -53 -82 -112.5t-70 -100.5l133 -43l-4 -94h-499z" />
<glyph unicode="y" horiz-adv-x="1173" d="M37 903v92l346 15q4 -49 16.5 -110.5t34.5 -127.5q47 -147 101.5 -289.5t101.5 -287.5h8q59 170 117.5 336.5t118.5 334.5l-127 43q0 23 1 44.5t1 43.5l377 13q2 -23 5 -45.5t5 -44.5q-63 -47 -109.5 -125t-87.5 -177q-82 -199 -166 -395t-168 -393q-55 -135 -138 -217 t-204 -82q-78 0 -133 34t-55 93q0 39 24.5 76t65.5 55l180 -102q33 6 58.5 24.5t44 43t32 51t21.5 49.5l51 133l-74 8q-86 217 -171 434t-171 436z" />
<glyph unicode="z" horiz-adv-x="1003" d="M51 86q68 90 144.5 192.5t155.5 207t155 206t141 191.5l-344 -9l-98 -188l-80 16l20 293l13 11q106 -2 197 -4t177 -1.5t176.5 2t196.5 3.5l33 -86q-66 -88 -139.5 -186.5t-150.5 -201t-153.5 -207t-148.5 -204.5l420 8l111 205l75 -15l-32 -311l-11 -10q-115 0 -214 1 t-196.5 1h-198.5t-218 -2z" />
<glyph unicode="{" horiz-adv-x="731" d="M123 516v76q82 31 105.5 98.5t23.5 163.5v299q0 74 21.5 125t58.5 83t86 46t104 14h127v-90h-71q-37 0 -61.5 -13t-38 -37t-18.5 -54.5t-5 -65.5v-330q0 -104 -33 -170.5t-117 -95.5v-8q92 -35 121 -99.5t29 -170.5v-371q0 -35 5 -64.5t18.5 -53t38 -37t61.5 -13.5h71 v-90h-127q-55 0 -104 14.5t-86 45t-58.5 81.5t-21.5 125v334q0 47 -3 85t-16.5 68.5t-39 56.5t-70.5 48z" />
<glyph unicode="|" horiz-adv-x="577" d="M221 -387v1833h133v-1833h-133z" />
<glyph unicode="}" horiz-adv-x="1054" d="M258 -252h72q37 0 61.5 13.5t37.5 37t18.5 53t5.5 64.5v367q0 109 28.5 173t120.5 99v8q-84 29 -116.5 95.5t-32.5 170.5v332q0 35 -5.5 65.5t-18.5 54.5t-37.5 37t-61.5 13h-72v90h127q55 0 104.5 -14t86 -46t58 -83t21.5 -125v-299q0 -47 4.5 -88t18.5 -75t39.5 -59.5 t66.5 -39.5v-76q-45 -23 -70.5 -48.5t-38.5 -56t-16.5 -68.5t-3.5 -85v-334q0 -74 -21.5 -125t-58 -81.5t-86 -45t-104.5 -14.5h-127v90z" />
<glyph unicode="~" d="M100 383q4 31 19.5 76t49.5 87t87 72.5t135 30.5q49 0 107.5 -16.5t118 -35.5t113.5 -35.5t95 -16.5q53 0 97.5 19.5t83.5 82.5l81 -26q-12 -47 -31.5 -91.5t-51 -80t-78.5 -57t-115 -21.5q-66 0 -123 16t-109.5 34.5t-101.5 35t-96 16.5q-53 0 -106.5 -22.5t-88.5 -90.5 z" />
<glyph unicode="&#xa1;" horiz-adv-x="614" d="M164 891q0 59 38 100t105 41q61 0 102.5 -41t41.5 -100t-41 -100t-103 -41q-59 0 -101 40.5t-42 100.5zM172 -299l92 913h90l86 -905q2 -27 -2 -53.5t-19.5 -49t-43 -36.5t-70.5 -14q-41 0 -67.5 14t-42 35.5t-20.5 47t-3 48.5z" />
<glyph unicode="&#xa2;" d="M211 487q0 96 29.5 182.5t88 151t142.5 102.5t195 40l24 202l82 -10l-24 -197q59 -8 111 -25.5t106 -39.5l-2 -229l-74 -13l-74 146q-47 14 -84 16l-74 -629q14 -2 28.5 -2h31.5q20 0 49 3t61.5 9.5t65.5 13.5t61 15l33 -98q-35 -23 -77 -40t-87 -28.5t-89 -17.5t-83 -6 h-12l-27 -236l-82 8l27 234q-174 23 -260 138.5t-86 309.5zM424 508q0 -111 32.5 -189.5t121.5 -113.5l69 606q-61 -10 -104 -40t-68.5 -72t-38 -92t-12.5 -99z" />
<glyph unicode="&#xa3;" d="M16 106q41 12 80 26.5t80 27.5q55 111 83 235.5t44 253.5h-184v117h203q14 104 36 209q25 123 74 206t111.5 134t132 73.5t131.5 22.5q33 0 75 -6t88 -21.5t93 -41t90 -68.5l-37 -254h-94l-29 192q-84 53 -178 54q-86 0 -139 -49.5t-84 -123t-47.5 -161.5t-28.5 -166h381 v-117h-397q-6 -59 -15.5 -123.5t-24 -128t-36 -124t-51.5 -111.5h88q53 0 117.5 1t126 2t117 2t89.5 1l127 238l78 -19l-47 -367l-22 -20q-74 0 -130.5 1t-111.5 2t-116.5 2t-143.5 1h-118t-133.5 -1l-137 -2t-127.5 -3z" />
<glyph unicode="&#xa4;" d="M160 276l123 123q-70 102 -70 222q0 111 70 210l-123 123l96 97l121 -121q53 33 107.5 50t111.5 17q123 0 217 -61l21.5 21.5t38 37t38 36t21.5 20.5l96 -95l-119 -116q33 -53 51.5 -108.5t18.5 -110.5q0 -59 -17.5 -112.5t-52.5 -107.5q4 -4 22.5 -21.5t38 -37.5 t37 -38.5t21.5 -22.5l-94 -95l-123 123q-104 -70 -215 -69q-59 0 -113.5 18t-107.5 51l-123 -125zM356 621q0 -49 19.5 -93.5t51.5 -76t76 -51t93 -19.5t93 19.5t77 51t51.5 75.5t18.5 94q0 49 -18.5 92t-51.5 74.5t-77 50t-93 18.5t-93 -18.5t-76 -50t-51.5 -74.5 t-19.5 -92z" />
<glyph unicode="&#xa5;" d="M23 1282l6 94h342q4 -51 18 -99t39 -101l225 -433h11l227 484l-172 51l2 94l442 4l4 -100q-41 -18 -72.5 -42t-59 -56.5t-54.5 -75.5t-55 -101l-133 -249h315v-113h-1006v113h306l-258 485zM102 430v111h1006v-111h-387v-285l178 -45l-2 -100h-563l-4 90l168 55v285h-396 z" />
<glyph unicode="&#xa6;" horiz-adv-x="579" d="M231 -387v848h134v-848h-134zM231 655v791h134v-791h-134z" />
<glyph unicode="&#xa7;" horiz-adv-x="1075" d="M158 858q0 96 36.5 206t104.5 202t162 152.5t211 60.5q111 0 174 -43t63 -103q0 -43 -30.5 -76.5t-71.5 -50.5l-244 148q-29 -20 -43 -54t-14 -73q0 -37 16.5 -75t41 -77t55 -75.5t61.5 -71.5q45 -51 92 -110.5t86 -127t63.5 -145.5t24.5 -164q0 -96 -33.5 -205.5 t-100.5 -203t-164 -156t-224 -62.5q-98 0 -161.5 43t-63.5 105q0 43 30.5 76.5t71.5 48.5q61 -37 120.5 -75t121.5 -77q27 23 41 56.5t14 66.5q0 39 -15.5 80t-41 81t-57 78.5t-62.5 75.5q-47 53 -94 112.5t-85 126t-61.5 143.5t-23.5 163zM309 952q0 -74 19.5 -137 t51.5 -118.5t72 -104.5t80 -96q39 -43 74 -85t62.5 -86t45 -90.5t17.5 -97.5v-32.5t-2 -32.5q2 0 2 -1t2 -1q29 47 44.5 97t15.5 103q0 72 -14.5 128.5t-42 108.5t-68.5 104.5t-93 113.5q-47 55 -81.5 105.5t-60 102.5t-41 106.5t-21.5 119.5l-4 2q-31 -47 -44.5 -102 t-13.5 -107z" />
<glyph unicode="&#xa8;" horiz-adv-x="1060" d="M197 1264q0 49 34.5 83.5t85.5 34.5q49 0 84 -34.5t35 -83.5t-34.5 -84t-84.5 -35q-51 0 -85.5 35t-34.5 84zM612 1264q0 49 35 83.5t84 34.5q51 0 86 -34.5t35 -83.5t-35 -84t-86 -35q-49 0 -84 35t-35 84z" />
<glyph unicode="&#xa9;" horiz-adv-x="1810" d="M133 709q0 158 58.5 296t162 241.5t244.5 162.5t309 59q166 0 308.5 -59t245 -162.5t160.5 -242t58 -295.5q0 -158 -58 -297.5t-160.5 -241.5t-245 -161.5t-308.5 -59.5q-178 0 -321.5 59.5t-243.5 161.5t-154.5 241.5t-54.5 297.5zM262 709q0 -135 47 -254t132 -207 t204 -138.5t262 -50.5t261 50.5t203 138.5t132 206.5t47 254.5q0 135 -48 253.5t-134 206.5t-203.5 138.5t-257.5 50.5q-141 0 -260 -50.5t-205 -138.5t-133 -206.5t-47 -253.5zM475 684q0 80 21.5 166t70.5 155.5t128 114.5t194 45q49 0 104.5 -10t114.5 -41 q6 10 15.5 26.5t13.5 24.5h67l4 -280l-73 -13l-52 134q-41 23 -81.5 33t-98.5 10q-74 0 -122 -32t-76.5 -82t-40 -112.5t-11.5 -126.5q0 -59 10.5 -122.5t41 -115.5t86 -85t147.5 -33q29 0 98.5 8t145.5 31l26 -98q-37 -18 -77.5 -30.5t-81.5 -20t-78 -11.5t-64 -4 q-207 0 -319.5 120t-112.5 349z" />
<glyph unicode="&#xaa;" horiz-adv-x="747" d="M35 748q0 29 13 71.5t67 75.5q35 23 110.5 41t225.5 22v58q0 53 -27 76.5t-92 23.5q-31 0 -91.5 -7t-131.5 -28q-8 23 -15.5 46.5t-13.5 48.5q66 33 142.5 52t152.5 19q119 0 181 -46t62 -173v-340l111 -20v-68q-33 -20 -80 -31.5t-88 -11.5q-33 0 -65.5 15.5t-42.5 80.5 l-84 -82q-31 -10 -66 -13t-61 -3q-106 0 -156.5 57.5t-50.5 135.5zM213 760q0 -37 18.5 -58.5t59.5 -21.5q35 0 78 14.5t82 36.5v141q-84 -6 -132.5 -19t-72 -29.5t-28.5 -34t-5 -29.5z" />
<glyph unicode="&#xab;" horiz-adv-x="970" d="M125 395v101l338 362l65 -43l-221 -371l221 -364l-65 -47zM451 395v101l337 362l68 -43l-223 -371l223 -364l-68 -47z" />
<glyph unicode="&#xac;" horiz-adv-x="1232" d="M154 496v149h923v-536h-155v387h-768z" />
<glyph unicode="&#xad;" horiz-adv-x="745" d="M98 444v158h551v-158h-551z" />
<glyph unicode="&#xae;" horiz-adv-x="1181" d="M96 963q0 102 37 191t103.5 155.5t156.5 104.5t199 38t200 -38t157.5 -104.5t104.5 -155.5t38 -191q0 -100 -38 -188.5t-104.5 -155t-157.5 -104.5t-200 -38q-115 0 -206 38t-155.5 104.5t-99.5 154.5t-35 189zM174 963q0 -86 29.5 -162t84 -132.5t131.5 -89t173 -32.5 q94 0 171 32.5t131 89t84 132.5t30 162q0 88 -30 163.5t-84 132t-131 89t-171 32.5q-92 0 -169 -32.5t-132 -89t-86 -132t-31 -163.5zM350 752l70 20v424l-66 18l6 43q27 -2 56.5 -3t77.5 -1q6 0 24.5 1t37.5 1t36.5 1t23.5 1q82 2 135.5 -32.5t53.5 -118.5q0 -47 -28.5 -89 t-84.5 -65l88 -176l84 -10v-49l-135 -23l-14 11l-111 231q-16 0 -38.5 1t-45.5 5v-168l76 -16l-2 -49h-242zM520 1008q14 -4 26.5 -4h22.5q80 0 108 29.5t28 64.5q0 53 -36 74.5t-96 21.5q-14 0 -26 -1t-27 -3v-182z" />
<glyph unicode="&#xaf;" horiz-adv-x="1071" d="M207 1198v158h684v-158h-684z" />
<glyph unicode="&#xb0;" horiz-adv-x="856" d="M123 1174q0 59 23.5 111t63.5 92t95 62.5t121 22.5q70 0 126 -22.5t96 -62.5t61.5 -92t21.5 -111t-23.5 -112.5t-64.5 -93.5t-97.5 -62.5t-119.5 -22.5t-118.5 22.5t-96.5 62.5t-64.5 93t-23.5 113zM244 1174q0 -76 48 -129.5t134 -53.5q90 0 137 53.5t47 129.5 q0 74 -47 126t-137 52q-88 0 -135 -51.5t-47 -126.5z" />
<glyph unicode="&#xb1;" d="M129 2v150h926v-150h-926zM129 555v152h385v364h156v-364h383v-152h-383v-338h-156v338h-385z" />
<glyph unicode="&#xb2;" horiz-adv-x="774" d="M37 840q29 16 54.5 31.5t47.5 31.5q166 104 257 206.5t91 217.5q0 84 -44 121t-119 37q-55 0 -118 -18.5t-116 -47.5q-12 23 -24.5 43.5t-22.5 42.5q74 49 155 80t173 31q133 0 218 -62.5t85 -195.5q0 -68 -30 -134.5t-83 -129t-124.5 -117.5t-155.5 -100l309 10l80 137 l61 -12l-37 -242q-8 -12 -20 -20q-84 2 -147.5 3t-141.5 1h-91h-68.5t-69.5 -1t-95 -1z" />
<glyph unicode="&#xb3;" horiz-adv-x="774" d="M53 788l37 99q82 -23 138.5 -29t93.5 -6q106 0 161.5 47t55.5 127q0 147 -209 148q-18 0 -43 -2.5t-56 -8.5l-41 68q66 57 132.5 114.5t132.5 116.5l-246 -6l-68 -110l-63 12q8 57 16 113.5t19 113.5l18 14q96 -4 171 -4h161h190l35 -100l-291 -213q68 0 125.5 -16.5 t99.5 -50t66.5 -82t24.5 -109.5q0 -74 -32 -129t-83 -91t-115.5 -53.5t-130.5 -17.5q-88 0 -160.5 13.5t-138.5 41.5z" />
<glyph unicode="&#xb4;" horiz-adv-x="1130" d="M440 1161l260 379l158 -127l-326 -323z" />
<glyph unicode="&#xb6;" horiz-adv-x="1118" d="M84 1034q0 78 28.5 147.5t78 121t117 81t147.5 29.5h594v-88l-144 -39v-1675h-135v1671h-135v-1649l-21 -22h-274v84l160 47v924h-45q-80 0 -147.5 28.5t-118 78.5t-78 116.5t-27.5 144.5z" />
<glyph unicode="&#xb7;" horiz-adv-x="505" d="M111 496q0 59 41 99t100 40q63 0 103 -40t40 -99t-40 -101.5t-103 -42.5q-66 0 -103.5 42t-37.5 102z" />
<glyph unicode="&#xb8;" horiz-adv-x="1046" d="M354 -451q43 4 89 12.5t84 22t62.5 35t24.5 49.5q0 29 -19.5 47.5t-47 28.5t-60 14t-57.5 6l-27 41l207 267l72 -43l-129 -166q102 -8 168.5 -46t66.5 -124q0 -51 -30.5 -93t-83.5 -71t-125 -45t-154 -16h-20t-21 2v79z" />
<glyph unicode="&#xb9;" horiz-adv-x="774" d="M135 838l170 39v585l-164 21v80l301 51l35 -37v-707q37 -8 80 -16t80 -14v-84q-68 2 -125 3t-123 1h-132t-120 -4z" />
<glyph unicode="&#xba;" horiz-adv-x="794" d="M53 897q0 70 23.5 133.5t67.5 110.5t109.5 75.5t152.5 28.5q82 0 144 -25.5t105 -70.5t64.5 -106.5t21.5 -135.5q0 -66 -20.5 -129t-62.5 -112.5t-107.5 -79t-157.5 -29.5q-94 0 -159.5 27.5t-105.5 75t-57.5 108.5t-17.5 129zM227 913q0 -39 6.5 -83t24.5 -81.5t51 -62 t88 -24.5q51 0 84 20t52.5 54t27.5 76t8 83q0 43 -7 87t-26.5 81t-52 59.5t-84.5 22.5q-51 0 -83.5 -22.5t-52 -57.5t-28 -75t-8.5 -77z" />
<glyph unicode="&#xbb;" horiz-adv-x="970" d="M123 80l223 364l-223 371l67 43l338 -362v-101l-338 -362zM451 80l221 364l-221 371l65 43l338 -362v-101l-338 -362z" />
<glyph unicode="&#xbc;" horiz-adv-x="1802" d="M170 655l170 39v586l-164 20v80l301 52l35 -37v-707q37 -8 80 -16t80 -15v-84q-68 2 -125.5 3.5t-122.5 1.5h-132.5t-119.5 -5zM469 -80l727 1555h113l-725 -1555h-115zM885 289l467 553l96 28l33 -14v-516h151v-111h-149v-125l104 -30l-2 -76h-385l-4 74l109 32v125 h-381zM1061 338h244v328z" />
<glyph unicode="&#xbd;" horiz-adv-x="1802" d="M125 655l170 39v586l-164 20v80l301 52l35 -37v-707q37 -8 80 -16t80 -15v-84q-68 2 -125.5 3.5t-122.5 1.5h-132.5t-119.5 -5zM410 -80l727 1555h112l-725 -1555h-114zM981 86q29 16 54.5 30.5t47.5 30.5q166 106 257.5 208t91.5 218q0 84 -44.5 121t-119.5 37 q-55 0 -118 -18.5t-116 -46.5l-47 84q74 49 155 79.5t173 30.5q135 0 219 -61.5t84 -196.5q0 -68 -29.5 -134.5t-83 -127.5t-125 -116.5t-155.5 -100.5q63 2 147 4t162 6l80 137q14 -4 29.5 -7t31.5 -7l-37 -242l-20 -18q-84 2 -147.5 3t-141.5 1h-91h-68.5t-69.5 -1t-94 -1 z" />
<glyph unicode="&#xbe;" horiz-adv-x="1802" d="M111 606l36 99q82 -23 138.5 -29t93.5 -6q106 0 161.5 47t55.5 127q0 147 -209 147q-18 0 -43 -2t-55 -8l-41 68q66 57 132 114.5t132 116.5l-246 -6l-67 -111l-64 13q8 57 16.5 113.5t18.5 113.5l18 14q96 -4 171 -4h161h191l34 -100l-290 -213q68 0 125 -16.5t99 -50.5 t66.5 -82t24.5 -109q0 -74 -31.5 -129.5t-83 -91t-116 -53t-129.5 -17.5q-88 0 -161 13.5t-138 41.5zM504 -80l727 1555h112l-725 -1555h-114zM942 289l467 553l96 28l33 -14v-516h152v-111h-150v-125l105 -30l-3 -76h-385l-4 74l109 32v125h-381zM1118 338h244v328z" />
<glyph unicode="&#xbf;" horiz-adv-x="952" d="M90 -190q0 63 31 116.5t78 98.5t101 87t101.5 84t78 87t30.5 98q0 35 -27.5 82t-62.5 76l53 77q111 -41 177.5 -120.5t66.5 -169.5q0 -47 -29 -91.5t-71 -86.5t-92 -81.5t-92 -80.5t-70.5 -82t-28.5 -84q0 -57 41 -102.5t147 -61.5l242 197q47 -16 82 -53.5t35 -98.5 q0 -41 -30 -70.5t-81 -50t-116.5 -30t-135.5 -9.5q-227 0 -327.5 73t-100.5 196zM385 885q0 59 40 101t103 42q66 0 104 -42t38 -101t-41 -99.5t-101 -40.5q-63 0 -103 40.5t-40 99.5z" />
<glyph unicode="&#xc0;" horiz-adv-x="1464" d="M16 102l156 45l393 1024q23 59 44.5 118t39.5 122l176 33l13 -6l497 -1293l119 -41l-6 -104h-565l-6 100l170 50l-105 292h-491l-99 -295l193 -43l-2 -104h-523zM356 1667l97 176l383 -256l-60 -100zM494 571h403l-90 260l-109 314h-10l-106 -316z" />
<glyph unicode="&#xc1;" horiz-adv-x="1464" d="M16 102l156 45l393 1024q23 59 44.5 118t39.5 122l176 33l13 -6l497 -1293l119 -41l-6 -104h-565l-6 100l170 50l-105 292h-491l-99 -295l193 -43l-2 -104h-523zM494 571h403l-90 260l-109 314h-10l-106 -316zM604 1587l381 256l98 -176l-419 -180z" />
<glyph unicode="&#xc2;" horiz-adv-x="1464" d="M16 102l156 45l393 1024q23 59 44.5 118t39.5 122l176 33l13 -6l497 -1293l119 -41l-6 -104h-565l-6 100l170 50l-105 292h-491l-99 -295l193 -43l-2 -104h-523zM334 1544l346 320h119l348 -318l-62 -69l-348 211l-346 -211zM494 571h403l-90 260l-109 314h-10l-106 -316 z" />
<glyph unicode="&#xc3;" horiz-adv-x="1464" d="M16 102l156 45l393 1024q23 59 44.5 118t39.5 122l176 33l13 -6l497 -1293l119 -41l-6 -104h-565l-6 100l170 50l-105 292h-491l-99 -295l193 -43l-2 -104h-523zM360 1530q4 27 15.5 67.5t36 78.5t65.5 64.5t103 26.5q39 0 78.5 -14t78.5 -31.5t76 -32t68 -14.5 q45 0 74.5 17.5t58.5 72.5l76 -12q-6 -45 -22.5 -87t-43.5 -73.5t-64.5 -50t-89.5 -18.5q-49 0 -89 13t-73.5 28.5t-65.5 29t-69 13.5q-41 0 -74.5 -17.5t-60.5 -77.5zM494 571h403l-90 260l-109 314h-10l-106 -316z" />
<glyph unicode="&#xc4;" horiz-adv-x="1464" d="M16 102l156 45l393 1024q23 59 44.5 118t39.5 122l176 33l13 -6l497 -1293l119 -41l-6 -104h-565l-6 100l170 50l-105 292h-491l-99 -295l193 -43l-2 -104h-523zM406 1636q0 49 34.5 84t85.5 35q49 0 84 -34.5t35 -84.5q0 -49 -35 -83.5t-84 -34.5q-51 0 -85.5 34.5 t-34.5 83.5zM494 571h403l-90 260l-109 314h-10l-106 -316zM821 1636q0 49 35 84t84 35q51 0 86 -34.5t35 -84.5q0 -49 -35 -83.5t-86 -34.5q-49 0 -84 34.5t-35 83.5z" />
<glyph unicode="&#xc5;" horiz-adv-x="1464" d="M16 102l156 45l393 1024q23 59 44.5 118t39.5 122l176 33l13 -6l497 -1293l119 -41l-6 -104h-565l-6 100l170 50l-105 292h-491l-99 -295l193 -43l-2 -104h-523zM494 571h403l-90 260l-109 314h-10l-106 -316zM496 1692q0 45 18 86t49 71.5t74 49t92 18.5q47 0 88 -18.5 t72 -49t48 -71.5t17 -86q0 -47 -17 -88t-48 -72t-72 -48.5t-88 -17.5q-49 0 -92 17.5t-74 48.5t-49 72t-18 88zM612 1692q0 -45 34 -80t83 -35q43 0 76 35t33 80q0 43 -33 79.5t-76 36.5q-49 0 -83 -35.5t-34 -80.5z" />
<glyph unicode="&#xc6;" horiz-adv-x="2105" d="M12 96l156 43l739 1131l-151 39l12 102q68 -2 154 -3t174 -2t169 -1h136q70 0 133 1t124.5 2t124 2t134.5 3l22 -12l7 -387l-93 -15l-86 254h-464v-489l503 16v-164l-503 17v-475h108.5t150 1t150.5 2t109 1l133 266l80 -20l-52 -388l-22 -20q-74 0 -135.5 1t-122 2 t-127 2t-150.5 1h-121.5t-141 -1t-144.5 -2t-131 -3l-10 98l184 58v321h-486l-208 -336l176 -41l-4 -100h-523zM651 610h410v637l-12 -2z" />
<glyph unicode="&#xc7;" horiz-adv-x="1280" d="M123 682q0 137 32.5 273.5t107.5 245t195 176t294 67.5q78 0 158.5 -14.5t176.5 -67.5l46 80h84l6 -426l-90 -10l-78 200q-59 41 -128 57.5t-155 16.5q-111 0 -187.5 -46t-124.5 -125t-68.5 -184.5t-20.5 -224.5q0 -109 16 -209t63.5 -177.5t133.5 -124t225 -46.5 q84 0 183.5 11.5t205.5 46.5l39 -133q-104 -53 -233.5 -77t-237.5 -24l-80 -104q102 -8 169 -46t67 -124q0 -51 -31 -93t-84 -71t-125 -45t-154 -16h-20t-21 2v79q43 4 89.5 12.5t84 22t62.5 35t25 49.5q0 29 -19.5 47.5t-47.5 28.5t-60.5 14t-57.5 6l-26 41l129 168 q-268 27 -405.5 203t-137.5 506z" />
<glyph unicode="&#xc8;" horiz-adv-x="1296" d="M72 92l184 55v1117l-166 49l12 96q51 -2 125 -3t150 -1h142.5h107.5q70 0 127 1t112.5 2t112.5 2t129 3l22 -12l9 -387l-92 -15l-86 256h-469v-458l507 16v-162l-507 17v-512h109.5t151 1t151.5 2t110 1l133 268l78 -20l-51 -388l-23 -20q-74 0 -134.5 1t-120.5 2 t-125.5 2t-149.5 1h-122t-141.5 -1t-144.5 -2t-131 -3zM365 1667l96 176l383 -256l-60 -100z" />
<glyph unicode="&#xc9;" horiz-adv-x="1296" d="M72 92l184 55v1117l-166 49l12 96q51 -2 125 -3t150 -1h142.5h107.5q70 0 127 1t112.5 2t112.5 2t129 3l22 -12l9 -387l-92 -15l-86 256h-469v-458l507 16v-162l-507 17v-512h109.5t151 1t151.5 2t110 1l133 268l78 -20l-51 -388l-23 -20q-74 0 -134.5 1t-120.5 2 t-125.5 2t-149.5 1h-122t-141.5 -1t-144.5 -2t-131 -3zM446 1587l381 256l99 -176l-420 -180z" />
<glyph unicode="&#xca;" horiz-adv-x="1296" d="M72 92l184 55v1117l-166 49l12 96q51 -2 125 -3t150 -1h142.5h107.5q70 0 127 1t112.5 2t112.5 2t129 3l22 -12l9 -387l-92 -15l-86 256h-469v-458l507 16v-162l-507 17v-512h109.5t151 1t151.5 2t110 1l133 268l78 -20l-51 -388l-23 -20q-74 0 -134.5 1t-120.5 2 t-125.5 2t-149.5 1h-122t-141.5 -1t-144.5 -2t-131 -3zM238 1544l346 320h118l349 -318l-62 -69l-348 211l-346 -211z" />
<glyph unicode="&#xcb;" horiz-adv-x="1296" d="M72 92l184 55v1117l-166 49l12 96q51 -2 125 -3t150 -1h142.5h107.5q70 0 127 1t112.5 2t112.5 2t129 3l22 -12l9 -387l-92 -15l-86 256h-469v-458l507 16v-162l-507 17v-512h109.5t151 1t151.5 2t110 1l133 268l78 -20l-51 -388l-23 -20q-74 0 -134.5 1t-120.5 2 t-125.5 2t-149.5 1h-122t-141.5 -1t-144.5 -2t-131 -3zM358 1636q0 49 35 84t86 35q49 0 84 -34.5t35 -84.5q0 -49 -35 -83.5t-84 -34.5q-51 0 -86 34.5t-35 83.5zM774 1636q0 49 35 84t84 35q51 0 86 -34.5t35 -84.5q0 -49 -35 -83.5t-86 -34.5q-49 0 -84 34.5t-35 83.5z " />
<glyph unicode="&#xcc;" horiz-adv-x="866" d="M55 1667l97 176l383 -256l-60 -100zM123 92l186 58v1110l-186 55l4 92h612l4 -100l-198 -47v-1110l198 -48l-4 -102h-612z" />
<glyph unicode="&#xcd;" horiz-adv-x="866" d="M123 92l186 58v1110l-186 55l4 92h612l4 -100l-198 -47v-1110l198 -48l-4 -102h-612zM297 1587l381 256l98 -176l-420 -180z" />
<glyph unicode="&#xce;" horiz-adv-x="866" d="M20 1544l347 320h118l349 -318l-62 -69l-348 211l-346 -211zM123 92l186 58v1110l-186 55l4 92h612l4 -100l-198 -47v-1110l198 -48l-4 -102h-612z" />
<glyph unicode="&#xcf;" horiz-adv-x="866" d="M96 1636q0 49 35 84t86 35q49 0 84 -34.5t35 -84.5q0 -49 -35 -83.5t-84 -34.5q-51 0 -86 34.5t-35 83.5zM123 92l186 58v1110l-186 55l4 92h612l4 -100l-198 -47v-1110l198 -48l-4 -102h-612zM512 1636q0 49 35 84t84 35q51 0 86 -34.5t35 -84.5q0 -49 -35 -83.5 t-86 -34.5q-49 0 -84 34.5t-35 83.5z" />
<glyph unicode="&#xd0;" horiz-adv-x="1517" d="M72 92l180 55v502h-137v117h137v498l-164 47l12 98q55 -2 88 -3t58.5 -2t52.5 -1h70q53 0 96 1t81 3t74.5 3t77.5 1q199 0 333 -60.5t215 -158.5t115 -222t34 -251q0 -61 -9.5 -139t-36 -158t-72.5 -156t-120 -135t-177 -95t-245 -36q-12 0 -58 1t-99.5 2t-100.5 2t-59 1 h-91h-74t-76 -1t-95 -3zM487 162q41 -10 98.5 -13.5t102.5 -3.5q131 0 220 48.5t142.5 128t77 184t23.5 217.5q0 162 -41 266.5t-111.5 164.5t-165 84t-200.5 24q-39 0 -79 -1t-67 -6v-489h328v-117h-328v-487z" />
<glyph unicode="&#xd1;" horiz-adv-x="1701" d="M57 96l211 58l23 1101l-209 60l14 96q150 -4 268.5 -3t178.5 3q35 -72 75 -125l416 -563l240 -328h6q0 82 -2 197t-4 236.5t-4 236.5t-4 197l-197 51l4 94h565l4 -102l-206 -48q-2 -70 -4 -170t-3.5 -216.5t-3.5 -240.5t-4 -241t-4 -218t-2 -171l-123 -29l-540 719 l-316 428l-6 -2l10 -969l209 -43l-4 -104h-584zM498 1530q4 27 15 67.5t35.5 78.5t65.5 64.5t103 26.5q39 0 79 -14t78.5 -31.5t75.5 -32t68 -14.5q45 0 74.5 17.5t58.5 72.5l76 -12q-6 -45 -22.5 -87t-43 -73.5t-64.5 -50t-89 -18.5q-49 0 -89 13t-74 28.5t-65.5 29 t-68.5 13.5q-41 0 -75 -17.5t-61 -77.5z" />
<glyph unicode="&#xd2;" horiz-adv-x="1527" d="M123 688q0 152 37 288t114.5 239.5t201.5 165t296 61.5q150 0 267.5 -51.5t199.5 -144.5t124 -226t42 -297q0 -154 -37 -291t-114.5 -240.5t-201.5 -164t-298 -60.5q-305 0 -468 188.5t-163 532.5zM371 729q0 -135 20.5 -246.5t66.5 -190.5t121.5 -123t186.5 -44 t185.5 47t121.5 125t67.5 181.5t20.5 213.5q0 123 -20.5 232.5t-67.5 191.5t-123.5 129t-189.5 47q-111 0 -185.5 -47t-119.5 -126t-64.5 -180t-19.5 -210zM438 1667l97 176l383 -256l-60 -100z" />
<glyph unicode="&#xd3;" horiz-adv-x="1527" d="M123 688q0 152 37 288t114.5 239.5t201.5 165t296 61.5q150 0 267.5 -51.5t199.5 -144.5t124 -226t42 -297q0 -154 -37 -291t-114.5 -240.5t-201.5 -164t-298 -60.5q-305 0 -468 188.5t-163 532.5zM371 729q0 -135 20.5 -246.5t66.5 -190.5t121.5 -123t186.5 -44 t185.5 47t121.5 125t67.5 181.5t20.5 213.5q0 123 -20.5 232.5t-67.5 191.5t-123.5 129t-189.5 47q-111 0 -185.5 -47t-119.5 -126t-64.5 -180t-19.5 -210zM580 1587l381 256l98 -176l-420 -180z" />
<glyph unicode="&#xd4;" horiz-adv-x="1527" d="M123 688q0 152 37 288t114.5 239.5t201.5 165t296 61.5q150 0 267.5 -51.5t199.5 -144.5t124 -226t42 -297q0 -154 -37 -291t-114.5 -240.5t-201.5 -164t-298 -60.5q-305 0 -468 188.5t-163 532.5zM356 1544l346 320h119l348 -318l-61 -69l-348 211l-346 -211zM371 729 q0 -135 20.5 -246.5t66.5 -190.5t121.5 -123t186.5 -44t185.5 47t121.5 125t67.5 181.5t20.5 213.5q0 123 -20.5 232.5t-67.5 191.5t-123.5 129t-189.5 47q-111 0 -185.5 -47t-119.5 -126t-64.5 -180t-19.5 -210z" />
<glyph unicode="&#xd5;" horiz-adv-x="1527" d="M123 688q0 152 37 288t114.5 239.5t201.5 165t296 61.5q150 0 267.5 -51.5t199.5 -144.5t124 -226t42 -297q0 -154 -37 -291t-114.5 -240.5t-201.5 -164t-298 -60.5q-305 0 -468 188.5t-163 532.5zM371 729q0 -135 20.5 -246.5t66.5 -190.5t121.5 -123t186.5 -44 t185.5 47t121.5 125t67.5 181.5t20.5 213.5q0 123 -20.5 232.5t-67.5 191.5t-123.5 129t-189.5 47q-111 0 -185.5 -47t-119.5 -126t-64.5 -180t-19.5 -210zM395 1530q4 27 15.5 67.5t36 78.5t65.5 64.5t102 26.5q39 0 79 -14t79 -31.5t76 -32t67 -14.5q45 0 75 17.5t59 72.5 l75 -12q-6 -45 -22.5 -87t-43 -73.5t-64.5 -50t-89 -18.5q-49 0 -89 13t-73.5 28.5t-65.5 29t-69 13.5q-41 0 -74.5 -17.5t-60.5 -77.5z" />
<glyph unicode="&#xd6;" horiz-adv-x="1527" d="M123 688q0 152 37 288t114.5 239.5t201.5 165t296 61.5q150 0 267.5 -51.5t199.5 -144.5t124 -226t42 -297q0 -154 -37 -291t-114.5 -240.5t-201.5 -164t-298 -60.5q-305 0 -468 188.5t-163 532.5zM371 729q0 -135 20.5 -246.5t66.5 -190.5t121.5 -123t186.5 -44 t185.5 47t121.5 125t67.5 181.5t20.5 213.5q0 123 -20.5 232.5t-67.5 191.5t-123.5 129t-189.5 47q-111 0 -185.5 -47t-119.5 -126t-64.5 -180t-19.5 -210zM444 1636q0 49 35 84t86 35q49 0 84 -34.5t35 -84.5q0 -49 -35 -83.5t-84 -34.5q-51 0 -86 34.5t-35 83.5zM860 1636 q0 49 35 84t84 35q51 0 86 -34.5t35 -84.5q0 -49 -35 -83.5t-86 -34.5q-49 0 -84 34.5t-35 83.5z" />
<glyph unicode="&#xd7;" d="M213 297l274 272l-272 273l109 106l272 -270l272 270l109 -106l-272 -273l268 -270l-107 -109l-270 271l-274 -273z" />
<glyph unicode="&#xd8;" horiz-adv-x="1527" d="M123 688q0 152 37 288t114.5 239.5t201.5 165t296 61.5q135 0 243.5 -43t188.5 -121l127 141l66 -65l-129 -148q68 -92 102.5 -215t34.5 -268q0 -154 -37 -291t-114.5 -240.5t-201.5 -164t-298 -60.5q-141 0 -252 44t-189 124l-116 -131l-68 66l123 137 q-129 184 -129 481zM371 729q0 -90 11 -174t40 -156l641 721q-47 78 -122 125t-181 47q-111 0 -185.5 -47t-119.5 -126t-64.5 -180t-19.5 -210zM461 303q47 -84 120.5 -131t184.5 -47t185.5 47t121.5 125t67.5 181t20.5 214q0 90 -13 175t-42 157z" />
<glyph unicode="&#xd9;" horiz-adv-x="1568" d="M61 1313l5 94h608l4 -102l-193 -48v-741q0 -80 11.5 -150.5t47.5 -123t103.5 -82t177.5 -29.5q106 0 171 33t101 88t48 129t12 154v722l-180 56l4 94h543l4 -102l-195 -48l-2 -804q0 -139 -48 -232.5t-127 -150t-180.5 -81t-209.5 -24.5q-102 0 -196.5 23.5t-167 78 t-115.5 141.5t-43 214v833zM438 1667l97 176l383 -256l-60 -100z" />
<glyph unicode="&#xda;" horiz-adv-x="1568" d="M61 1313l5 94h608l4 -102l-193 -48v-741q0 -80 11.5 -150.5t47.5 -123t103.5 -82t177.5 -29.5q106 0 171 33t101 88t48 129t12 154v722l-180 56l4 94h543l4 -102l-195 -48l-2 -804q0 -139 -48 -232.5t-127 -150t-180.5 -81t-209.5 -24.5q-102 0 -196.5 23.5t-167 78 t-115.5 141.5t-43 214v833zM674 1587l381 256l98 -176l-420 -180z" />
<glyph unicode="&#xdb;" horiz-adv-x="1568" d="M61 1313l5 94h608l4 -102l-193 -48v-741q0 -80 11.5 -150.5t47.5 -123t103.5 -82t177.5 -29.5q106 0 171 33t101 88t48 129t12 154v722l-180 56l4 94h543l4 -102l-195 -48l-2 -804q0 -139 -48 -232.5t-127 -150t-180.5 -81t-209.5 -24.5q-102 0 -196.5 23.5t-167 78 t-115.5 141.5t-43 214v833zM401 1544l347 320h118l348 -318l-61 -69l-348 211l-346 -211z" />
<glyph unicode="&#xdc;" horiz-adv-x="1568" d="M61 1313l5 94h608l4 -102l-193 -48v-741q0 -80 11.5 -150.5t47.5 -123t103.5 -82t177.5 -29.5q106 0 171 33t101 88t48 129t12 154v722l-180 56l4 94h543l4 -102l-195 -48l-2 -804q0 -139 -48 -232.5t-127 -150t-180.5 -81t-209.5 -24.5q-102 0 -196.5 23.5t-167 78 t-115.5 141.5t-43 214v833zM487 1636q0 49 35 84t86 35q49 0 84 -34.5t35 -84.5q0 -49 -35 -83.5t-84 -34.5q-51 0 -86 34.5t-35 83.5zM903 1636q0 49 35 84t84 35q51 0 86 -34.5t35 -84.5q0 -49 -35 -83.5t-86 -34.5q-49 0 -84 34.5t-35 83.5z" />
<glyph unicode="&#xdd;" horiz-adv-x="1304" d="M10 1309l6 100h390q4 -53 18 -102.5t43 -102.5l233 -448h13l258 499l-185 50l5 102l499 2l4 -104q-49 -20 -86 -46t-67.5 -59t-60 -76t-62.5 -100l-232 -399v-473l197 -48l-2 -104h-621l-4 94l187 58v421l-377 687zM500 1587l381 256l98 -176l-420 -180z" />
<glyph unicode="&#xde;" horiz-adv-x="1300" d="M74 92l184 58v1110l-182 55l4 92h602l4 -100l-192 -47v-134h254q106 0 194 -24.5t151.5 -73.5t97.5 -120.5t34 -166.5q0 -84 -31 -160.5t-94.5 -135t-159.5 -93.5t-227 -35q-35 0 -92.5 3.5t-126.5 17.5v-188l192 -48l-4 -102h-604zM494 475q39 -6 77.5 -9t61.5 -3 q106 0 175 23.5t106.5 60.5t52 82t14.5 90q0 135 -87 199.5t-247 64.5q-84 0 -153 -14v-494z" />
<glyph unicode="&#xdf;" horiz-adv-x="1261" d="M47 82l160 59v658h-152v84l152 57v84q0 78 24.5 159t79 146.5t138 106.5t204.5 41q104 0 175 -25t114 -63.5t61.5 -83.5t18.5 -86q0 -74 -36 -122t-78 -84t-77.5 -68t-35.5 -75q0 -49 29.5 -90t74.5 -79.5t98.5 -79.5t98.5 -91.5t74.5 -112t29.5 -143.5q0 -80 -29.5 -138 t-81 -97t-120 -57.5t-148.5 -18.5q-76 0 -146.5 14.5t-123.5 36.5l-14 252q18 4 35.5 7t35.5 8l70 -152q27 -20 68.5 -30.5t68.5 -10.5q72 0 113 39t41 92q0 76 -51.5 136.5t-112.5 123.5q-33 33 -70 72t-68.5 82t-53 89t-21.5 95q0 61 33.5 103.5t73.5 81t74 80.5t34 104 q0 10 -5 35.5t-23.5 52t-56.5 47t-106 20.5q-98 0 -145 -62t-47 -153v-1089l-39 -37h-336z" />
<glyph unicode="&#xe0;" horiz-adv-x="1083" d="M59 254q0 20 3.5 50t14.5 60.5t32.5 60.5t58.5 52q25 14 63.5 30.5t98 30t142.5 22.5t198 13v103q0 98 -43 134t-144 36q-49 0 -134 -10.5t-185 -38.5l-35 118q92 51 198.5 79t217.5 28q166 0 255 -70.5t89 -255.5v-538l162 -35v-86q-43 -29 -108.5 -45.5t-123.5 -16.5 q-23 0 -46 3.5t-44.5 18.5t-37 46t-19.5 86l-4 2l-140 -131q-47 -12 -91 -19.5t-87 -7.5q-72 0 -126 21.5t-91 59.5t-55.5 89.5t-18.5 110.5zM258 1413l160 129l260 -379l-96 -76zM291 274q0 -63 31.5 -101t97.5 -38q55 0 122.5 24.5t127.5 63.5v246q-131 -8 -207 -31.5 t-114 -52.5t-48 -58.5t-10 -52.5z" />
<glyph unicode="&#xe1;" horiz-adv-x="1083" d="M59 254q0 20 3.5 50t14.5 60.5t32.5 60.5t58.5 52q25 14 63.5 30.5t98 30t142.5 22.5t198 13v103q0 98 -43 134t-144 36q-49 0 -134 -10.5t-185 -38.5l-35 118q92 51 198.5 79t217.5 28q166 0 255 -70.5t89 -255.5v-538l162 -35v-86q-43 -29 -108.5 -45.5t-123.5 -16.5 q-23 0 -46 3.5t-44.5 18.5t-37 46t-19.5 86l-4 2l-140 -131q-47 -12 -91 -19.5t-87 -7.5q-72 0 -126 21.5t-91 59.5t-55.5 89.5t-18.5 110.5zM291 274q0 -63 31.5 -101t97.5 -38q55 0 122.5 24.5t127.5 63.5v246q-131 -8 -207 -31.5t-114 -52.5t-48 -58.5t-10 -52.5z M397 1161l260 379l158 -127l-326 -323z" />
<glyph unicode="&#xe2;" horiz-adv-x="1083" d="M59 254q0 20 3.5 50t14.5 60.5t32.5 60.5t58.5 52q25 14 63.5 30.5t98 30t142.5 22.5t198 13v103q0 98 -43 134t-144 36q-49 0 -134 -10.5t-185 -38.5l-35 118q92 51 198.5 79t217.5 28q166 0 255 -70.5t89 -255.5v-538l162 -35v-86q-43 -29 -108.5 -45.5t-123.5 -16.5 q-23 0 -46 3.5t-44.5 18.5t-37 46t-19.5 86l-4 2l-140 -131q-47 -12 -91 -19.5t-87 -7.5q-72 0 -126 21.5t-91 59.5t-55.5 89.5t-18.5 110.5zM115 1171l346 332h119l348 -329l-60 -70l-350 221l-346 -221zM291 274q0 -63 31.5 -101t97.5 -38q55 0 122.5 24.5t127.5 63.5v246 q-131 -8 -207 -31.5t-114 -52.5t-48 -58.5t-10 -52.5z" />
<glyph unicode="&#xe3;" horiz-adv-x="1083" d="M59 254q0 20 3.5 50t14.5 60.5t32.5 60.5t58.5 52q25 14 63.5 30.5t98 30t142.5 22.5t198 13v103q0 98 -43 134t-144 36q-49 0 -134 -10.5t-185 -38.5l-35 118q92 51 198.5 79t217.5 28q166 0 255 -70.5t89 -255.5v-538l162 -35v-86q-43 -29 -108.5 -45.5t-123.5 -16.5 q-23 0 -46 3.5t-44.5 18.5t-37 46t-19.5 86l-4 2l-140 -131q-47 -12 -91 -19.5t-87 -7.5q-72 0 -126 21.5t-91 59.5t-55.5 89.5t-18.5 110.5zM147 1169q4 27 15.5 68t36 79t65.5 64.5t103 26.5q39 0 78.5 -14.5t78.5 -32t76 -31.5t68 -14q45 0 74.5 17.5t58.5 72.5l76 -12 q-6 -45 -22.5 -87t-43.5 -74t-64.5 -50.5t-89.5 -18.5q-49 0 -89 13.5t-73.5 29t-65.5 28.5t-69 13q-41 0 -74.5 -17.5t-60.5 -76.5zM291 274q0 -63 31.5 -101t97.5 -38q55 0 122.5 24.5t127.5 63.5v246q-131 -8 -207 -31.5t-114 -52.5t-48 -58.5t-10 -52.5z" />
<glyph unicode="&#xe4;" horiz-adv-x="1083" d="M59 254q0 20 3.5 50t14.5 60.5t32.5 60.5t58.5 52q25 14 63.5 30.5t98 30t142.5 22.5t198 13v103q0 98 -43 134t-144 36q-49 0 -134 -10.5t-185 -38.5l-35 118q92 51 198.5 79t217.5 28q166 0 255 -70.5t89 -255.5v-538l162 -35v-86q-43 -29 -108.5 -45.5t-123.5 -16.5 q-23 0 -46 3.5t-44.5 18.5t-37 46t-19.5 86l-4 2l-140 -131q-47 -12 -91 -19.5t-87 -7.5q-72 0 -126 21.5t-91 59.5t-55.5 89.5t-18.5 110.5zM205 1264q0 49 34.5 83.5t86.5 34.5q49 0 83.5 -34.5t34.5 -83.5t-34.5 -84t-83.5 -35q-51 0 -86 35t-35 84zM291 274 q0 -63 31.5 -101t97.5 -38q55 0 122.5 24.5t127.5 63.5v246q-131 -8 -207 -31.5t-114 -52.5t-48 -58.5t-10 -52.5zM621 1264q0 49 34.5 83.5t83.5 34.5q51 0 86 -34.5t35 -83.5t-34.5 -84t-86.5 -35q-49 0 -83.5 35t-34.5 84z" />
<glyph unicode="&#xe5;" horiz-adv-x="1083" d="M59 254q0 20 3.5 50t14.5 60.5t32.5 60.5t58.5 52q25 14 63.5 30.5t98 30t142.5 22.5t198 13v103q0 98 -43 134t-144 36q-49 0 -134 -10.5t-185 -38.5l-35 118q92 51 198.5 79t217.5 28q166 0 255 -70.5t89 -255.5v-538l162 -35v-86q-43 -29 -108.5 -45.5t-123.5 -16.5 q-23 0 -46 3.5t-44.5 18.5t-37 46t-19.5 86l-4 2l-140 -131q-47 -12 -91 -19.5t-87 -7.5q-72 0 -126 21.5t-91 59.5t-55.5 89.5t-18.5 110.5zM291 274q0 -63 31.5 -101t97.5 -38q55 0 122.5 24.5t127.5 63.5v246q-131 -8 -207 -31.5t-114 -52.5t-48 -58.5t-10 -52.5z M307 1346q0 45 18.5 86t49.5 71.5t74 49t92 18.5q47 0 88 -18.5t71.5 -49t48 -71.5t17.5 -86q0 -47 -17.5 -88t-48 -72t-71.5 -48.5t-88 -17.5q-49 0 -92 17.5t-74 48.5t-49.5 71.5t-18.5 88.5zM424 1346q0 -45 34 -80t83 -35q43 0 75.5 34.5t32.5 80.5q0 43 -32.5 79.5 t-75.5 36.5q-49 0 -83 -35.5t-34 -80.5z" />
<glyph unicode="&#xe6;" horiz-adv-x="1667" d="M59 250q0 43 19.5 103.5t87.5 113.5q45 35 165 67.5t341 47.5v86q0 98 -46 135t-145 37q-47 0 -133 -11.5t-184 -40.5l-37 127q92 51 198.5 79t217.5 28q102 0 173.5 -26.5t112.5 -94.5q57 53 139.5 85t192.5 32q135 0 219 -41t131.5 -105.5t63.5 -144.5t18 -160l-18 -20 l-666 -41q0 -90 17.5 -158.5t54.5 -116t98.5 -71t151.5 -23.5q45 0 123 13.5t159 48.5l37 -107q-78 -55 -182 -87t-213 -32q-145 0 -243.5 47.5t-157.5 137.5q-51 -41 -100.5 -80t-102.5 -78q-47 -12 -99.5 -19.5t-95.5 -7.5q-143 0 -220 78t-77 199zM289 272 q0 -61 31.5 -99t97.5 -38q27 0 64.5 5t79.5 17.5t82 32t71 46.5q-20 49 -29.5 107t-11.5 124v14q-133 -10 -209 -35.5t-116 -56.5t-50 -62.5t-10 -54.5zM913 608q104 10 210 20.5t210 22.5q0 39 -7 81t-27.5 77t-58.5 56.5t-97 21.5q-70 0 -114 -28t-69.5 -69.5t-36 -90 t-10.5 -91.5z" />
<glyph unicode="&#xe7;" horiz-adv-x="983" d="M82 485q0 117 35 215.5t100.5 170t159.5 111.5t215 40q68 0 128 -12.5t104 -35t70 -55t26 -73.5q0 -47 -32 -84t-77 -55l-246 184q-68 -10 -115 -46t-76.5 -87t-42 -113.5t-12.5 -128.5q0 -92 14.5 -160.5t50.5 -115.5t96.5 -71t152.5 -24q23 0 54.5 4.5t66 10.5t70.5 14 t67 19l39 -115q-37 -25 -81 -44.5t-91 -32.5t-94.5 -20.5t-90.5 -7.5l-86 -110q102 -8 169 -46t67 -124q0 -51 -30.5 -93t-84 -71t-125 -45t-153.5 -16h-20.5t-20.5 2v79q43 4 89 12.5t84 22t62.5 35t24.5 49.5q0 29 -19.5 47.5t-47 28.5t-60.5 14t-57 6l-27 41l133 175 q-199 23 -294 146t-95 359z" />
<glyph unicode="&#xe8;" horiz-adv-x="1073" d="M82 487q0 98 22.5 193.5t78 171.5t149.5 123t239 47q135 0 218 -42t130.5 -108.5t63.5 -146.5t18 -156l-18 -22l-666 -35q0 -92 16.5 -161.5t54.5 -117t98.5 -71t150.5 -23.5q47 0 124 13.5t161 48.5l39 -109q-78 -53 -182.5 -86t-215.5 -33q-129 0 -221 35t-149.5 101.5 t-84 162t-26.5 215.5zM266 1413l160 129l260 -379l-96 -76zM322 608l419 43q0 41 -7 83t-27.5 76t-57.5 55.5t-98 21.5q-70 0 -114 -28t-69.5 -69.5t-35.5 -90t-10 -91.5z" />
<glyph unicode="&#xe9;" horiz-adv-x="1073" d="M82 487q0 98 22.5 193.5t78 171.5t149.5 123t239 47q135 0 218 -42t130.5 -108.5t63.5 -146.5t18 -156l-18 -22l-666 -35q0 -92 16.5 -161.5t54.5 -117t98.5 -71t150.5 -23.5q47 0 124 13.5t161 48.5l39 -109q-78 -53 -182.5 -86t-215.5 -33q-129 0 -221 35t-149.5 101.5 t-84 162t-26.5 215.5zM322 608l419 43q0 41 -7 83t-27.5 76t-57.5 55.5t-98 21.5q-70 0 -114 -28t-69.5 -69.5t-35.5 -90t-10 -91.5zM459 1161l260 379l158 -127l-326 -323z" />
<glyph unicode="&#xea;" horiz-adv-x="1073" d="M82 487q0 98 22.5 193.5t78 171.5t149.5 123t239 47q135 0 218 -42t130.5 -108.5t63.5 -146.5t18 -156l-18 -22l-666 -35q0 -92 16.5 -161.5t54.5 -117t98.5 -71t150.5 -23.5q47 0 124 13.5t161 48.5l39 -109q-78 -53 -182.5 -86t-215.5 -33q-129 0 -221 35t-149.5 101.5 t-84 162t-26.5 215.5zM152 1171l346 332h118l349 -329l-60 -70l-350 221l-346 -221zM322 608l419 43q0 41 -7 83t-27.5 76t-57.5 55.5t-98 21.5q-70 0 -114 -28t-69.5 -69.5t-35.5 -90t-10 -91.5z" />
<glyph unicode="&#xeb;" horiz-adv-x="1073" d="M82 487q0 98 22.5 193.5t78 171.5t149.5 123t239 47q135 0 218 -42t130.5 -108.5t63.5 -146.5t18 -156l-18 -22l-666 -35q0 -92 16.5 -161.5t54.5 -117t98.5 -71t150.5 -23.5q47 0 124 13.5t161 48.5l39 -109q-78 -53 -182.5 -86t-215.5 -33q-129 0 -221 35t-149.5 101.5 t-84 162t-26.5 215.5zM225 1264q0 49 35 83.5t86 34.5q49 0 84 -34.5t35 -83.5t-35 -84t-84 -35q-51 0 -86 35t-35 84zM322 608l419 43q0 41 -7 83t-27.5 76t-57.5 55.5t-98 21.5q-70 0 -114 -28t-69.5 -69.5t-35.5 -90t-10 -91.5zM641 1264q0 49 35 83.5t84 34.5 q51 0 86 -34.5t35 -83.5t-35 -84t-86 -35q-49 0 -84 35t-35 84z" />
<glyph unicode="&#xec;" horiz-adv-x="700" d="M-16 1413l159 129l260 -379l-96 -76zM82 86l162 57v59.5v126v162v163t-1 131t-1 69.5l-140 37v86l340 53l19 -10v-887l157 -47l-2 -86h-530z" />
<glyph unicode="&#xed;" horiz-adv-x="700" d="M82 86l162 57v59.5v126v162v163t-1 131t-1 69.5l-140 37v86l340 53l19 -10v-887l157 -47l-2 -86h-530zM203 1161l260 379l158 -127l-326 -323z" />
<glyph unicode="&#xee;" horiz-adv-x="700" d="M-76 1171l346 332h119l348 -329l-59 -70l-350 221l-346 -221zM82 86l162 57v59.5v126v162v163t-1 131t-1 69.5l-140 37v86l340 53l19 -10v-887l157 -47l-2 -86h-530z" />
<glyph unicode="&#xef;" horiz-adv-x="700" d="M-10 1264q0 49 34.5 83.5t86.5 34.5q49 0 83.5 -34.5t34.5 -83.5t-34.5 -84t-83.5 -35q-51 0 -86 35t-35 84zM82 86l162 57v59.5v126v162v163t-1 131t-1 69.5l-140 37v86l340 53l19 -10v-887l157 -47l-2 -86h-530zM406 1264q0 49 34.5 83.5t83.5 34.5q51 0 86 -34.5 t35 -83.5t-35 -84t-86 -35q-49 0 -83.5 35t-34.5 84z" />
<glyph unicode="&#xf0;" horiz-adv-x="1150" d="M86 453q0 100 33 188t92 153.5t142.5 103.5t183.5 38q59 0 124.5 -16.5t110.5 -47.5q-25 78 -75 155t-117 147l-177 -115l-49 74l160 104q-59 51 -122.5 93t-127.5 71q10 27 22.5 51.5t22.5 48.5q86 -31 171 -74t165 -102q53 37 106.5 73t106.5 70l51 -75 q-47 -33 -95 -64t-95 -61q76 -66 139.5 -143.5t109.5 -169t72.5 -196t26.5 -220.5q0 -111 -26.5 -213.5t-88 -181t-160 -125t-241.5 -46.5q-127 0 -215 41t-143.5 108.5t-81 153.5t-25.5 177zM319 471q0 -61 11.5 -125.5t40 -117t77.5 -86t127 -33.5q84 0 136.5 39.5t81 97 t38 123t9.5 114.5q0 53 -9.5 121t-31.5 121q-31 20 -89.5 44t-115.5 24q-76 0 -128 -29t-85 -74t-47.5 -103.5t-14.5 -115.5z" />
<glyph unicode="&#xf1;" horiz-adv-x="1300" d="M74 86l155 55v711l-141 37v86q72 12 144.5 22.5t144.5 22.5l18 -8l47 -150q2 0 2 -1t2 -1l148 139q51 12 107.5 18.5t103.5 6.5q137 0 208.5 -65.5t71.5 -215.5v-610l144 -43l-4 -90h-504l-2 88l147 51v514q0 98 -34.5 144.5t-129.5 46.5q-57 0 -122.5 -21.5 t-135.5 -60.5v-284.5t2 -344.5l148 -43l-2 -90h-514zM260 1169q4 27 15.5 68t36 79t65.5 64.5t102 26.5q39 0 79 -14.5t79 -32t76 -31.5t67 -14q45 0 75 17.5t58 72.5l76 -12q-6 -45 -22.5 -87t-43 -74t-64.5 -50.5t-89 -18.5q-49 0 -89 13.5t-74 29t-65.5 28.5t-68.5 13 q-41 0 -74.5 -17.5t-60.5 -76.5z" />
<glyph unicode="&#xf2;" horiz-adv-x="1150" d="M82 492q0 111 32.5 207t97 167.5t159 113.5t217.5 42t213 -38t149.5 -107.5t89 -164.5t29.5 -208q0 -106 -28.5 -202.5t-90 -169.5t-156 -116t-225.5 -43q-135 0 -228 40t-150.5 110t-83 165t-25.5 204zM287 1413l159 129l261 -379l-97 -76zM315 518q0 -74 9.5 -146.5 t37 -130t79 -93t134.5 -35.5q78 0 129.5 31.5t81 84t42 118t12.5 132.5q0 78 -12.5 150.5t-42 130t-80 91.5t-127.5 34q-78 0 -129.5 -34t-81 -87t-41 -118t-11.5 -128z" />
<glyph unicode="&#xf3;" horiz-adv-x="1150" d="M82 492q0 111 32.5 207t97 167.5t159 113.5t217.5 42t213 -38t149.5 -107.5t89 -164.5t29.5 -208q0 -106 -28.5 -202.5t-90 -169.5t-156 -116t-225.5 -43q-135 0 -228 40t-150.5 110t-83 165t-25.5 204zM315 518q0 -74 9.5 -146.5t37 -130t79 -93t134.5 -35.5 q78 0 129.5 31.5t81 84t42 118t12.5 132.5q0 78 -12.5 150.5t-42 130t-80 91.5t-127.5 34q-78 0 -129.5 -34t-81 -87t-41 -118t-11.5 -128zM444 1161l261 379l157 -127l-325 -323z" />
<glyph unicode="&#xf4;" horiz-adv-x="1150" d="M82 492q0 111 32.5 207t97 167.5t159 113.5t217.5 42t213 -38t149.5 -107.5t89 -164.5t29.5 -208q0 -106 -28.5 -202.5t-90 -169.5t-156 -116t-225.5 -43q-135 0 -228 40t-150.5 110t-83 165t-25.5 204zM174 1171l346 332h119l348 -329l-59 -70l-350 221l-347 -221z M315 518q0 -74 9.5 -146.5t37 -130t79 -93t134.5 -35.5q78 0 129.5 31.5t81 84t42 118t12.5 132.5q0 78 -12.5 150.5t-42 130t-80 91.5t-127.5 34q-78 0 -129.5 -34t-81 -87t-41 -118t-11.5 -128z" />
<glyph unicode="&#xf5;" horiz-adv-x="1150" d="M82 492q0 111 32.5 207t97 167.5t159 113.5t217.5 42t213 -38t149.5 -107.5t89 -164.5t29.5 -208q0 -106 -28.5 -202.5t-90 -169.5t-156 -116t-225.5 -43q-135 0 -228 40t-150.5 110t-83 165t-25.5 204zM199 1169q4 27 15 68t35.5 79t65.5 64.5t103 26.5q39 0 79 -14.5 t78.5 -32t75.5 -31.5t68 -14q45 0 74.5 17.5t58.5 72.5l76 -12q-6 -45 -22.5 -87t-43 -74t-64.5 -50.5t-89 -18.5q-49 0 -89 13.5t-74 29t-65.5 28.5t-68.5 13q-41 0 -75 -17.5t-61 -76.5zM315 518q0 -74 9.5 -146.5t37 -130t79 -93t134.5 -35.5q78 0 129.5 31.5t81 84 t42 118t12.5 132.5q0 78 -12.5 150.5t-42 130t-80 91.5t-127.5 34q-78 0 -129.5 -34t-81 -87t-41 -118t-11.5 -128z" />
<glyph unicode="&#xf6;" horiz-adv-x="1150" d="M82 492q0 111 32.5 207t97 167.5t159 113.5t217.5 42t213 -38t149.5 -107.5t89 -164.5t29.5 -208q0 -106 -28.5 -202.5t-90 -169.5t-156 -116t-225.5 -43q-135 0 -228 40t-150.5 110t-83 165t-25.5 204zM242 1264q0 49 34.5 83.5t85.5 34.5q49 0 84 -34.5t35 -83.5 t-34.5 -84t-84.5 -35q-51 0 -85.5 35t-34.5 84zM315 518q0 -74 9.5 -146.5t37 -130t79 -93t134.5 -35.5q78 0 129.5 31.5t81 84t42 118t12.5 132.5q0 78 -12.5 150.5t-42 130t-80 91.5t-127.5 34q-78 0 -129.5 -34t-81 -87t-41 -118t-11.5 -128zM657 1264q0 49 35 83.5 t84 34.5q51 0 86 -34.5t35 -83.5t-35 -84t-86 -35q-49 0 -84 35t-35 84z" />
<glyph unicode="&#xf7;" d="M133 483v152h924v-152h-924zM465 186q0 53 38 93t93 40q53 0 92 -39.5t39 -93.5q0 -53 -39 -91t-92 -38q-55 0 -93 38t-38 91zM465 926q0 55 38 94t93 39q53 0 92 -39t39 -94q0 -53 -39 -91t-92 -38q-55 0 -93 38t-38 91z" />
<glyph unicode="&#xf8;" horiz-adv-x="1150" d="M82 492q0 111 32.5 207t97 167.5t159 113.5t217.5 42q100 0 181 -27.5t140 -79.5l105 113l55 -59l-104 -115q53 -68 78.5 -157t25.5 -193q0 -106 -28.5 -202.5t-90 -169.5t-156 -116t-225.5 -43q-111 0 -192.5 27t-138.5 74l-95 -101l-59 58l94 102q-53 72 -74.5 163 t-21.5 196zM315 518q0 -43 5.5 -99.5t27.5 -109.5l422 463q-31 49 -78 81t-114 32q-78 0 -129.5 -36t-81 -90t-41 -119t-11.5 -122zM381 223q29 -49 76 -79.5t118 -30.5q78 0 129.5 31.5t81 84t42 117.5t12.5 133q0 53 -8.5 107.5t-28.5 101.5z" />
<glyph unicode="&#xf9;" horiz-adv-x="1277" d="M61 891v86l338 45l19 -8q0 -168 1 -335t1 -337q0 -98 37 -146.5t127 -48.5q47 0 118.5 23t139.5 63v621l-142 37v88l340 45q6 -2 19 -10v-869q39 -10 78 -18t80 -18v-89l-308 -40l-16 6l-47 149q-2 0 -4 2q-78 -74 -150 -137q-49 -12 -105.5 -18.5t-101.5 -6.5 q-135 0 -209.5 61.5t-74.5 217.5v598q-35 10 -70 19.5t-70 19.5zM279 1413l159 129l260 -379l-96 -76z" />
<glyph unicode="&#xfa;" horiz-adv-x="1277" d="M61 891v86l338 45l19 -8q0 -168 1 -335t1 -337q0 -98 37 -146.5t127 -48.5q47 0 118.5 23t139.5 63v621l-142 37v88l340 45q6 -2 19 -10v-869q39 -10 78 -18t80 -18v-89l-308 -40l-16 6l-47 149q-2 0 -4 2q-78 -74 -150 -137q-49 -12 -105.5 -18.5t-101.5 -6.5 q-135 0 -209.5 61.5t-74.5 217.5v598q-35 10 -70 19.5t-70 19.5zM483 1161l260 379l158 -127l-326 -323z" />
<glyph unicode="&#xfb;" horiz-adv-x="1277" d="M61 891v86l338 45l19 -8q0 -168 1 -335t1 -337q0 -98 37 -146.5t127 -48.5q47 0 118.5 23t139.5 63v621l-142 37v88l340 45q6 -2 19 -10v-869q39 -10 78 -18t80 -18v-89l-308 -40l-16 6l-47 149q-2 0 -4 2q-78 -74 -150 -137q-49 -12 -105.5 -18.5t-101.5 -6.5 q-135 0 -209.5 61.5t-74.5 217.5v598q-35 10 -70 19.5t-70 19.5zM182 1171l346 332h119l348 -329l-59 -70l-350 221l-346 -221z" />
<glyph unicode="&#xfc;" horiz-adv-x="1277" d="M61 891v86l338 45l19 -8q0 -168 1 -335t1 -337q0 -98 37 -146.5t127 -48.5q47 0 118.5 23t139.5 63v621l-142 37v88l340 45q6 -2 19 -10v-869q39 -10 78 -18t80 -18v-89l-308 -40l-16 6l-47 149q-2 0 -4 2q-78 -74 -150 -137q-49 -12 -105.5 -18.5t-101.5 -6.5 q-135 0 -209.5 61.5t-74.5 217.5v598q-35 10 -70 19.5t-70 19.5zM274 1264q0 49 35 83.5t86 34.5q49 0 84 -34.5t35 -83.5t-35 -84t-84 -35q-51 0 -86 35t-35 84zM690 1264q0 49 35 83.5t84 34.5q51 0 86 -34.5t35 -83.5t-35 -84t-86 -35q-49 0 -84 35t-35 84z" />
<glyph unicode="&#xfd;" horiz-adv-x="1173" d="M37 903v92l346 15q4 -49 16.5 -110.5t34.5 -127.5q47 -147 101.5 -289.5t101.5 -287.5h8q59 170 117.5 336.5t118.5 334.5l-127 43q0 23 1 44.5t1 43.5l377 13q2 -23 5 -45.5t5 -44.5q-63 -47 -109.5 -125t-87.5 -177q-82 -199 -166 -395t-168 -393q-55 -135 -138 -217 t-204 -82q-78 0 -133 34t-55 93q0 39 24.5 76t65.5 55l180 -102q33 6 58.5 24.5t44 43t32 51t21.5 49.5l51 133l-74 8q-86 217 -171 434t-171 436zM463 1161l260 379l158 -127l-326 -323z" />
<glyph unicode="&#xfe;" horiz-adv-x="1179" d="M6 -362l158 55v1607l-146 39v88l342 46l19 -13l2 -592h4l143 131q94 25 174 25q100 0 176 -39t125.5 -106.5t74 -159.5t24.5 -201q0 -115 -25.5 -214t-81 -173t-143.5 -117t-213 -43q-55 0 -124 10.5t-134 43.5v-336l170 -49l-4 -89h-537zM385 176q41 -18 103.5 -29.5 t115.5 -11.5q76 0 127 32t82 83t44 115.5t13 132.5t-12 131t-39.5 111t-73 77t-112.5 29q-70 0 -134.5 -24.5t-113.5 -55.5v-590z" />
<glyph unicode="&#xff;" horiz-adv-x="1173" d="M37 903v92l346 15q4 -49 16.5 -110.5t34.5 -127.5q47 -147 101.5 -289.5t101.5 -287.5h8q59 170 117.5 336.5t118.5 334.5l-127 43q0 23 1 44.5t1 43.5l377 13q2 -23 5 -45.5t5 -44.5q-63 -47 -109.5 -125t-87.5 -177q-82 -199 -166 -395t-168 -393q-55 -135 -138 -217 t-204 -82q-78 0 -133 34t-55 93q0 39 24.5 76t65.5 55l180 -102q33 6 58.5 24.5t44 43t32 51t21.5 49.5l51 133l-74 8q-86 217 -171 434t-171 436zM264 1264q0 49 35 83.5t86 34.5q49 0 84 -34.5t35 -83.5t-35 -84t-84 -35q-51 0 -86 35t-35 84zM680 1264q0 49 35 83.5 t84 34.5q51 0 86 -34.5t35 -83.5t-35 -84t-86 -35q-49 0 -84 35t-35 84z" />
<glyph unicode="&#x152;" horiz-adv-x="1828" d="M125 688q0 152 34 285t110.5 233.5t201.5 157.5t305 57q27 0 58.5 -3t79 -6t115 -5t163.5 -2q70 0 122 1t101 2t101.5 2t123.5 3l23 -12l8 -387l-92 -15l-86 256h-436v-458l475 16v-162l-475 17v-512h104.5t140 1t140 2t104.5 1l133 268l78 -20l-49 -388l-22 -20 q-74 0 -129.5 1t-109.5 2t-115.5 2t-145.5 1q-137 0 -237.5 -9t-192.5 -9q-317 0 -474 185t-157 515zM369 729q0 -125 19.5 -231.5t66.5 -184t123.5 -122t191.5 -44.5h25.5t25.5 3v1114q-14 2 -27.5 3t-29.5 1q-109 0 -183.5 -41t-121.5 -114t-68.5 -171t-21.5 -213z" />
<glyph unicode="&#x153;" horiz-adv-x="1837" d="M82 492q0 111 32.5 207t97 167.5t159 113.5t217.5 42q125 0 217 -51t153 -133q55 78 147.5 131t229.5 53q133 0 217 -42t130.5 -108.5t63.5 -146.5t19 -156l-18 -22l-666 -35q2 -190 74 -281.5t248 -91.5q45 0 123 13.5t160 48.5l38 -109q-78 -53 -183 -86t-214 -33 q-135 0 -231.5 46.5t-149.5 130.5q-57 -78 -150.5 -127.5t-226.5 -49.5q-135 0 -228 40t-150.5 110t-83 165t-25.5 204zM315 518q0 -61 9.5 -132t37 -131t79 -101t134.5 -41q78 0 129.5 31.5t81 84t42 118t12.5 132.5q0 70 -12.5 141.5t-42 130t-80 96.5t-127.5 38 q-78 0 -129.5 -36t-81 -90t-41 -119t-11.5 -122zM1083 608l422 43q0 41 -8 83t-28.5 76t-57.5 55.5t-96 21.5q-70 0 -114 -28t-70.5 -69.5t-37 -90t-10.5 -91.5z" />
<glyph unicode="&#x178;" horiz-adv-x="1304" d="M10 1309l6 100h390q4 -53 18 -102.5t43 -102.5l233 -448h13l258 499l-185 50l5 102l499 2l4 -104q-49 -20 -86 -46t-67.5 -59t-60 -76t-62.5 -100l-232 -399v-473l197 -48l-2 -104h-621l-4 94l187 58v421l-377 687zM336 1636q0 49 35 84t86 35q49 0 83.5 -34.5 t34.5 -84.5q0 -49 -34.5 -83.5t-83.5 -34.5q-51 0 -86 34.5t-35 83.5zM752 1636q0 49 34.5 84t83.5 35q51 0 86 -34.5t35 -84.5q0 -49 -34.5 -83.5t-86.5 -34.5q-49 0 -83.5 34.5t-34.5 83.5z" />
<glyph unicode="&#x2c6;" horiz-adv-x="1060" d="M127 1171l346 332h119l348 -329l-59 -70l-351 221l-346 -221z" />
<glyph unicode="&#x2dc;" horiz-adv-x="1038" d="M152 1169q4 27 15 68t35.5 79t65.5 64.5t103 26.5q39 0 78.5 -14.5t78.5 -32t76 -31.5t68 -14q45 0 74.5 17.5t58.5 72.5l76 -12q-6 -45 -22.5 -87t-43.5 -74t-64.5 -50.5t-88.5 -18.5q-49 0 -89.5 13.5t-74 29t-65.5 28.5t-68 13q-41 0 -75 -17.5t-61 -76.5z" />
<glyph unicode="&#x2000;" horiz-adv-x="958" />
<glyph unicode="&#x2001;" horiz-adv-x="1917" />
<glyph unicode="&#x2002;" horiz-adv-x="958" />
<glyph unicode="&#x2003;" horiz-adv-x="1917" />
<glyph unicode="&#x2004;" horiz-adv-x="639" />
<glyph unicode="&#x2005;" horiz-adv-x="479" />
<glyph unicode="&#x2006;" horiz-adv-x="319" />
<glyph unicode="&#x2007;" horiz-adv-x="319" />
<glyph unicode="&#x2008;" horiz-adv-x="239" />
<glyph unicode="&#x2009;" horiz-adv-x="383" />
<glyph unicode="&#x200a;" horiz-adv-x="106" />
<glyph unicode="&#x2010;" horiz-adv-x="745" d="M98 444v158h551v-158h-551z" />
<glyph unicode="&#x2011;" horiz-adv-x="745" d="M98 444v158h551v-158h-551z" />
<glyph unicode="&#x2012;" horiz-adv-x="745" d="M98 444v158h551v-158h-551z" />
<glyph unicode="&#x2013;" horiz-adv-x="1024" d="M61 446v134h902v-134h-902z" />
<glyph unicode="&#x2014;" horiz-adv-x="2048" d="M61 446v134h1926v-134h-1926z" />
<glyph unicode="&#x2018;" horiz-adv-x="593" d="M143 1120q0 51 19.5 103.5t53.5 101.5t82 92t108 72l45 -57q-55 -53 -85 -101.5t-36 -113.5q47 -10 73.5 -43t26.5 -80q0 -53 -40 -92t-101 -39q-70 0 -108 46t-38 111z" />
<glyph unicode="&#x2019;" horiz-adv-x="593" d="M145 1020q53 51 83 100t36 115q-47 10 -73.5 43t-26.5 80q0 53 40 92t101 39q70 0 108 -47t38 -113q0 -49 -19.5 -102t-53.5 -102.5t-82 -91.5t-106 -70z" />
<glyph unicode="&#x201a;" horiz-adv-x="522" d="M100 -242q55 55 85 108.5t36 121.5q-47 10 -74.5 46t-27.5 83q0 57 41 98t104 41q72 0 110 -49t38 -119q0 -53 -19.5 -109.5t-54.5 -108.5t-84 -96t-107 -75z" />
<glyph unicode="&#x201c;" horiz-adv-x="931" d="M147 1120q0 51 19.5 103.5t53.5 101.5t82 92t106 72l47 -57q-55 -53 -85 -101.5t-36 -113.5q47 -10 73.5 -43t26.5 -80q0 -53 -40 -92t-101 -39q-70 0 -108 46t-38 111zM477 1120q0 51 19.5 103.5t54.5 101.5t83 92t105 72l45 -57q-53 -53 -82.5 -101.5t-35.5 -113.5 q47 -10 73.5 -43t26.5 -80q0 -53 -41 -92t-100 -39q-70 0 -109 46t-39 111z" />
<glyph unicode="&#x201d;" horiz-adv-x="931" d="M150 1020q53 51 82.5 100t35.5 115q-47 10 -73.5 43t-26.5 80q0 53 40 92t101 39q70 0 109 -47t39 -113q0 -49 -19.5 -102t-54.5 -102.5t-83 -91.5t-105 -70zM479 1020q55 51 85 100t36 115q-47 10 -73.5 43t-26.5 80q0 53 40 92t101 39q70 0 107.5 -47t37.5 -113 q0 -49 -19 -102t-53 -102.5t-82 -91.5t-106 -70z" />
<glyph unicode="&#x201e;" horiz-adv-x="876" d="M100 -242q55 55 85 108.5t36 121.5q-47 10 -74.5 46t-27.5 83q0 57 41 98t104 41q72 0 110 -49t38 -119q0 -53 -19.5 -109.5t-54.5 -108.5t-84 -96t-107 -75zM453 -242q55 55 85.5 108.5t36.5 121.5q-47 10 -74.5 46t-27.5 83q0 57 41 98t102 41q72 0 111 -49t39 -119 q0 -53 -19.5 -109.5t-55.5 -108.5t-85 -96t-106 -75z" />
<glyph unicode="&#x2022;" horiz-adv-x="897" d="M205 543q0 51 19.5 95t52 77t76.5 52t96 19q51 0 95 -19t76.5 -52t52 -77t19.5 -95t-19.5 -95.5t-52 -77t-76.5 -52t-95 -19.5t-95.5 19.5t-77 52t-52 77t-19.5 95.5z" />
<glyph unicode="&#x2026;" horiz-adv-x="1447" d="M111 117q0 59 41 100t100 41q63 0 103 -41t40 -100t-40 -100.5t-103 -41.5q-66 0 -103.5 41t-37.5 101zM580 117q0 59 41 100t100 41q63 0 103 -41t40 -100t-40 -100.5t-103 -41.5q-66 0 -103.5 41t-37.5 101zM1053 117q0 59 41 100t100 41q63 0 103 -41t40 -100 t-40 -100.5t-103 -41.5q-66 0 -103.5 41t-37.5 101z" />
<glyph unicode="&#x202f;" horiz-adv-x="383" />
<glyph unicode="&#x2039;" horiz-adv-x="651" d="M123 395v101l338 362l67 -43l-223 -371l223 -364l-65 -47z" />
<glyph unicode="&#x203a;" horiz-adv-x="651" d="M125 80l221 364l-221 371l68 43l337 -362v-101l-340 -362z" />
<glyph unicode="&#x205f;" horiz-adv-x="479" />
<glyph unicode="&#x20ac;" d="M41 518v111h846v-111h-506q6 -76 29.5 -145.5t70.5 -122.5t120 -85t175 -32q23 0 60.5 3t85 9.5t100.5 17.5t104 27l37 -124q-51 -27 -109.5 -45.5t-116.5 -31t-111.5 -17.5t-90.5 -5q-264 0 -413.5 135.5t-176.5 415.5h-104zM43 745v113h109q14 106 55 206.5 t112.5 177.5t176 123t243.5 46q41 0 90.5 -4t103.5 -19.5t109.5 -44t108.5 -77.5l-31 -260h-94l-39 192q-53 33 -107.5 47.5t-131.5 14.5q-86 0 -152 -34t-112 -90.5t-71.5 -129t-31.5 -148.5h504v-113h-842z" />
<glyph unicode="&#x2122;" horiz-adv-x="1767" d="M102 1188v107.5t2 107.5q4 4 7.5 5t7.5 3q70 -4 142.5 -4h150.5h147.5t145.5 4l12 -8l4 -215l-53 -6l-45 135h-146v-518l96 -23l-2 -59h-315l-2 55l90 29v516h-147l-43 -135zM723 723v57l98 27q10 127 20.5 260t20.5 262q-45 14 -96 29l8 55q33 0 59.5 -1t49.5 -1h66.5 t60.5 2q6 -39 16 -63l174 -404l6 -2q47 115 96.5 235.5t98.5 233.5q31 -2 59.5 -2h63.5l100 2l4 -59q-23 -6 -47.5 -11.5t-48.5 -13.5l39 -524l92 -23v-59h-317l-3 55l87 27q-8 111 -12.5 212t-12.5 212l-4 2q-47 -117 -95.5 -243t-95.5 -236h-69l-199 469h-4l-18 -418 l96 -21l-2 -59h-291z" />
<glyph unicode="&#x25fc;" horiz-adv-x="1013" d="M0 0v1014h1014v-1014h-1014z" />
</font>
</defs>
</svg>
